<svg width="20" height="21" viewBox="0 0 20 21" fill="none" xmlns="http://www.w3.org/2000/svg">
<g id="icon/table">
<path id="Vector" opacity="0.4" d="M3.34672 4.21336H15.6253C16.0582 4.21336 16.4066 4.56178 16.4066 4.99465V6.54188C16.4069 6.64455 16.3868 6.74625 16.3476 6.84114C16.3085 6.93604 16.2509 7.02226 16.1783 7.09486C16.1057 7.16745 16.0195 7.22499 15.9246 7.26417C15.8297 7.30336 15.728 7.3234 15.6253 7.32317H3.34672C3.24406 7.3234 3.14236 7.30336 3.04746 7.26417C2.95256 7.22499 2.86634 7.16745 2.79375 7.09486C2.72115 7.02226 2.66361 6.93604 2.62443 6.84114C2.58525 6.74625 2.5652 6.64455 2.56543 6.54188V4.99406C2.56543 4.56119 2.91385 4.21336 3.34672 4.21336Z" fill="#6C0FBC"/>
<path id="Vector_2" d="M16.8734 4.80334L17.8206 17.7322C17.8679 18.377 16.5391 18.618 16.3962 17.7322L14.9712 4.80334H16.8734ZM2.33888 15.5678L2.1936 17.7322C2.14636 18.377 3.48749 18.605 3.618 17.7322L3.8365 15.5678H2.33888Z" fill="#6C0FBC"/>
<path id="Vector_3" d="M2.18754 3.9801H9.21858C9.65145 3.9801 9.99987 4.32852 9.99987 4.76139V14.9625C10.0001 15.0651 9.98005 15.1668 9.94087 15.2617C9.90169 15.3566 9.84415 15.4429 9.77155 15.5155C9.69896 15.588 9.61274 15.6456 9.51784 15.6848C9.42294 15.724 9.32124 15.744 9.21858 15.7438H2.18754C2.08488 15.744 1.98318 15.724 1.88828 15.6848C1.79338 15.6456 1.70716 15.588 1.63457 15.5155C1.56197 15.4429 1.50443 15.3566 1.46525 15.2617C1.42607 15.1668 1.40602 15.0651 1.40625 14.9625V4.76139C1.40625 4.32852 1.75467 3.9801 2.18754 3.9801Z" fill="#6C0FBC"/>
<path id="Vector_4" d="M1.92361 2.68738H18.0768C18.7961 2.68738 19.3748 3.26611 19.3748 3.9854C19.3748 4.70468 18.7961 5.28401 18.0768 5.28401H1.92361C1.75295 5.28447 1.58387 5.2512 1.42611 5.18611C1.26834 5.12101 1.125 5.02538 1.00432 4.9047C0.883636 4.78401 0.787999 4.64067 0.722903 4.48291C0.657808 4.32514 0.624537 4.15606 0.625005 3.9854C0.625005 3.2667 1.20374 2.68738 1.92361 2.68738Z" fill="#6C0FBC"/>
<path id="Vector_5" d="M5.49807 8.46881C5.32454 8.46881 5.15811 8.39987 5.0354 8.27716C4.91269 8.15445 4.84375 7.98802 4.84375 7.81448C4.84375 7.64094 4.91269 7.47451 5.0354 7.3518C5.15811 7.22909 5.32454 7.16016 5.49807 7.16016C5.67161 7.16016 5.83804 7.22909 5.96075 7.3518C6.08346 7.47451 6.1524 7.64094 6.1524 7.81448C6.1524 7.98802 6.08346 8.15445 5.96075 8.27716C5.83804 8.39987 5.67161 8.46881 5.49807 8.46881ZM5.49807 13.8203C5.41215 13.8203 5.32706 13.8034 5.24768 13.7705C5.16829 13.7376 5.09616 13.6894 5.0354 13.6287C4.97464 13.5679 4.92644 13.4958 4.89356 13.4164C4.86067 13.337 4.84375 13.2519 4.84375 13.166C4.84375 12.9925 4.91269 12.826 5.0354 12.7033C5.15811 12.5806 5.32454 12.5117 5.49807 12.5117C5.67161 12.5117 5.83804 12.5806 5.96075 12.7033C6.08346 12.826 6.1524 12.9925 6.1524 13.166C6.1524 13.3395 6.08346 13.506 5.96075 13.6287C5.83804 13.7514 5.67161 13.8203 5.49807 13.8203Z" fill="#C49FE4"/>
<path id="Vector_6" d="M1.40625 9.95288V10.6367H9.99987V9.95288H1.40625Z" fill="#C49FE4"/>
</g>
</svg>
