<svg width="20" height="21" viewBox="0 0 20 21" fill="none" xmlns="http://www.w3.org/2000/svg">
<g clip-path="url(#clip0_315_296)">
<path d="M6.75664 15.9778C6.90372 16.1091 7.00744 16.2821 7.05405 16.4737C7.10067 16.6653 7.08799 16.8666 7.01769 17.0508C6.94739 17.2351 6.82278 17.3936 6.66037 17.5055C6.49796 17.6173 6.30541 17.6772 6.1082 17.6772C5.911 17.6772 5.71844 17.6173 5.55603 17.5055C5.39363 17.3936 5.26902 17.2351 5.19872 17.0508C5.12842 16.8666 5.11574 16.6653 5.16235 16.4737C5.20897 16.2821 5.31268 16.1091 5.45977 15.9778V15.9747C5.63901 15.8157 5.87022 15.7279 6.10977 15.7278C6.34848 15.7274 6.5789 15.8153 6.75664 15.9747V15.9778Z" fill="#C49FE4"/>
<path d="M5.45898 15.9747V14.4309L9.02773 13.134V14.4309L6.75586 15.4028V15.9747C6.57811 15.8153 6.3477 15.7274 6.10898 15.7278C5.86944 15.7279 5.63823 15.8157 5.45898 15.9747Z" fill="#C49FE4"/>
<path d="M14.5408 15.9778C14.6879 16.1091 14.7916 16.2821 14.8382 16.4737C14.8848 16.6653 14.8722 16.8666 14.8019 17.0508C14.7316 17.2351 14.607 17.3936 14.4446 17.5055C14.2821 17.6173 14.0896 17.6772 13.8924 17.6772C13.6952 17.6772 13.5026 17.6173 13.3402 17.5055C13.1778 17.3936 13.0532 17.2351 12.9829 17.0508C12.9126 16.8666 12.8999 16.6653 12.9465 16.4737C12.9931 16.2821 13.0969 16.1091 13.2439 15.9778V15.9747C13.4217 15.8153 13.6521 15.7274 13.8908 15.7278C14.1304 15.7279 14.3616 15.8157 14.5408 15.9747V15.9778Z" fill="#C49FE4"/>
<path d="M13.2439 15.4028L10.9721 14.4309V13.134L14.5408 14.4309V15.9747C14.3616 15.8157 14.1304 15.7279 13.8908 15.7278C13.6521 15.7274 13.4217 15.8153 13.2439 15.9747V15.4028ZM10.9721 14.4309L10.6502 15.9778C10.4719 15.8169 10.2403 15.7278 10.0002 15.7278C9.76005 15.7278 9.52845 15.8169 9.3502 15.9778L9.02832 14.4309H10.9721Z" fill="#C49FE4"/>
<path d="M10.9721 13.134V14.4309H9.02832V13.134H9.3502H10.6502H10.9721Z" fill="#C49FE4"/>
<path d="M10.0002 15.7278C10.2405 15.727 10.4724 15.8162 10.6502 15.9778C10.7963 16.1093 10.8992 16.282 10.9451 16.4731C10.9911 16.6643 10.978 16.8649 10.9076 17.0484C10.8372 17.2319 10.7128 17.3898 10.5508 17.5012C10.3888 17.6126 10.1968 17.6722 10.0002 17.6722C9.80361 17.6722 9.61164 17.6126 9.44963 17.5012C9.28763 17.3898 9.16321 17.2319 9.0928 17.0484C9.02239 16.8649 9.00929 16.6643 9.05525 16.4731C9.1012 16.282 9.20404 16.1093 9.3502 15.9778C9.52804 15.8162 9.75991 15.727 10.0002 15.7278ZM16.1721 8.10903C16.1721 8.28716 16.0221 8.47466 15.8471 8.43403L15.1971 8.27153L14.5502 8.10903C14.3752 8.06528 14.2252 7.96216 14.2252 7.78403V7.13403H16.1721V8.10903Z" fill="#C49FE4"/>
<path d="M8.55957 10.5403L8.05332 11.8372H7.40645C6.43457 11.8372 6.43457 10.5403 6.43457 9.56841C6.43457 8.27153 7.05332 7.94653 7.05332 7.94653L7.08145 8.27153C7.17234 8.48879 7.3121 8.68216 7.48987 8.83662C7.66764 8.99109 7.87863 9.10248 8.10645 9.16216V9.16528C8.08336 9.66373 8.24467 10.1532 8.55957 10.5403Z" fill="#C49FE4"/>
<path d="M11.2969 9.24341C11.4987 9.2451 11.6997 9.21773 11.8938 9.16216V9.16528C11.9168 9.66373 11.7555 10.1532 11.4406 10.5403H8.55937C8.24447 10.1532 8.08317 9.66373 8.10625 9.16528V9.16216C8.30028 9.21773 8.5013 9.2451 8.70312 9.24341H11.2969ZM5.775 7.13403V7.78403C5.775 7.96216 5.625 8.06528 5.45 8.10903L4.80312 8.27153L4.15312 8.43403C3.97812 8.47466 3.82812 8.28716 3.82812 8.10903V7.13403H5.775Z" fill="#C49FE4"/>
<path d="M12.9467 7.94653C12.9467 7.94653 13.5654 8.27153 13.5654 9.56841C13.5654 10.5403 13.5654 11.8372 12.5936 11.8372H11.9467L11.4404 10.5403C11.7553 10.1532 11.9166 9.66373 11.8936 9.16528V9.16216C12.1214 9.10248 12.3324 8.99109 12.5101 8.83662C12.6879 8.68216 12.8277 8.48879 12.9186 8.27153L12.9467 7.94653Z" fill="#C49FE4"/>
<path d="M11.6217 2.43408C11.6217 2.43408 13.5654 3.08096 13.2436 4.70283L12.9467 7.94658L12.9186 8.27158C12.8277 8.48883 12.6879 8.68221 12.5101 8.83667C12.3324 8.99113 12.1214 9.10253 11.8936 9.16221C11.6995 9.21778 11.4985 9.24515 11.2967 9.24346L11.2217 7.94658L10.9717 3.61846C11.0336 3.57105 11.0838 3.51013 11.1186 3.44033L11.6217 2.43408Z" fill="#C49FE4"/>
<path d="M11.4402 10.5403L11.9465 11.8372H10.6496H9.34961H8.05273L8.55898 10.5403H11.4402Z" fill="#C49FE4"/>
<path d="M11.2219 7.94653L11.2969 9.24341H8.70312L8.77812 7.94653H11.2219Z" fill="#C49FE4"/>
<path d="M10.9721 3.61841L11.2221 7.94653H8.77832L9.02832 3.61841C9.1198 3.69124 9.23327 3.7309 9.3502 3.73091H10.6502C10.7671 3.7309 10.8806 3.69124 10.9721 3.61841Z" fill="#C49FE4"/>
<path d="M10.6496 11.8372H9.34961V13.134H10.6496V11.8372Z" fill="#C49FE4"/>
<path d="M9.02856 3.61846L8.77856 7.94658L8.70356 9.24346C8.50173 9.24515 8.30071 9.21778 8.10668 9.16221C7.87887 9.10253 7.66788 8.99113 7.49011 8.83667C7.31234 8.68221 7.17258 8.48883 7.08168 8.27158L7.05356 7.94658L6.75668 4.70283C6.43481 3.08096 8.37856 2.43408 8.37856 2.43408L8.88168 3.44033C8.91642 3.51013 8.96666 3.57105 9.02856 3.61846Z" fill="#C49FE4"/>
<path d="M11.6217 2.43413L11.1186 3.44038C11.0838 3.51018 11.0336 3.5711 10.9717 3.61851C10.8802 3.69133 10.7667 3.73099 10.6498 3.73101H9.3498C9.23288 3.73099 9.11941 3.69133 9.02793 3.61851C8.96603 3.5711 8.9158 3.51018 8.88105 3.44038L8.37793 2.43413C8.37793 0.812256 9.9998 0.812256 9.9998 0.812256C9.9998 0.812256 11.6217 0.812256 11.6217 2.43413Z" fill="#C49FE4"/>
<path d="M11.2966 9.55599C11.2169 9.55596 11.1402 9.52544 11.0823 9.47068C11.0244 9.41593 10.9896 9.34109 10.985 9.2615L10.6609 3.63681C10.6586 3.59585 10.6643 3.55483 10.6778 3.51609C10.6913 3.47734 10.7123 3.44163 10.7396 3.411C10.7669 3.38037 10.7999 3.35541 10.8368 3.33755C10.8738 3.31969 10.9139 3.30928 10.9548 3.30692C10.9958 3.30455 11.0368 3.31028 11.0756 3.32377C11.1143 3.33726 11.15 3.35824 11.1806 3.38553C11.2425 3.44065 11.28 3.51808 11.2847 3.6008L11.6088 9.22549C11.6112 9.26646 11.6055 9.3075 11.592 9.34627C11.5786 9.38504 11.5576 9.42077 11.5303 9.45142C11.503 9.48208 11.4699 9.50705 11.433 9.52491C11.396 9.54278 11.3559 9.55318 11.3149 9.55553C11.3088 9.55584 11.3027 9.55599 11.2966 9.55599ZM10.6484 13.4471C10.6074 13.4472 10.5667 13.4391 10.5288 13.4234C10.4909 13.4077 10.4564 13.3847 10.4274 13.3557C10.3984 13.3266 10.3754 13.2922 10.3597 13.2543C10.344 13.2163 10.3359 13.1757 10.3359 13.1346V11.8376C10.3359 11.7548 10.3689 11.6753 10.4275 11.6167C10.4861 11.5581 10.5656 11.5251 10.6484 11.5251C10.7313 11.5251 10.8108 11.5581 10.8694 11.6167C10.928 11.6753 10.9609 11.7548 10.9609 11.8376V13.1346C10.961 13.1757 10.9529 13.2163 10.9372 13.2543C10.9215 13.2922 10.8985 13.3266 10.8695 13.3557C10.8404 13.3847 10.806 13.4077 10.7681 13.4234C10.7301 13.4391 10.6895 13.4472 10.6484 13.4471Z" fill="#6C0FBC"/>
<path d="M14.5405 16.2892C14.4995 16.2893 14.4588 16.2812 14.4209 16.2655C14.383 16.2498 14.3485 16.2268 14.3195 16.1978C14.2905 16.1687 14.2675 16.1343 14.2518 16.0964C14.2361 16.0584 14.228 16.0178 14.228 15.9767V14.6508L10.8665 13.4285C10.8278 13.4146 10.7923 13.3931 10.762 13.3654C10.7316 13.3377 10.707 13.3043 10.6896 13.2671C10.6722 13.2299 10.6623 13.1896 10.6605 13.1485C10.6586 13.1075 10.6649 13.0665 10.679 13.0279C10.693 12.9892 10.7146 12.9538 10.7423 12.9235C10.7701 12.8932 10.8036 12.8687 10.8409 12.8514C10.8781 12.8341 10.9184 12.8243 10.9595 12.8225C11.0006 12.8208 11.0415 12.8272 11.0801 12.8414L14.6473 14.1384C14.7076 14.1602 14.7597 14.2001 14.7965 14.2527C14.8333 14.3052 14.853 14.3678 14.853 14.4319V15.9767C14.853 16.0178 14.845 16.0584 14.8293 16.0964C14.8136 16.1343 14.7906 16.1687 14.7615 16.1978C14.7325 16.2268 14.6981 16.2498 14.6601 16.2655C14.6222 16.2812 14.5816 16.2893 14.5405 16.2892ZM13.2432 16.2892C13.2022 16.2893 13.1615 16.2812 13.1236 16.2655C13.0857 16.2498 13.0512 16.2268 13.0222 16.1978C12.9932 16.1687 12.9701 16.1343 12.9545 16.0964C12.9388 16.0584 12.9307 16.0178 12.9307 15.9767V15.6105L10.8503 14.7191C10.7742 14.6865 10.7141 14.625 10.6833 14.548C10.6525 14.4711 10.6535 14.3851 10.6861 14.309C10.7188 14.2328 10.7803 14.1727 10.8572 14.1419C10.9341 14.1111 11.0201 14.1122 11.0963 14.1448L13.3662 15.1174C13.4225 15.1414 13.4704 15.1814 13.5041 15.2325C13.5378 15.2835 13.5557 15.3434 13.5557 15.4045V15.9767C13.5557 16.0178 13.5477 16.0584 13.532 16.0964C13.5163 16.1343 13.4933 16.1687 13.4642 16.1978C13.4352 16.2268 13.4008 16.2498 13.3628 16.2655C13.3249 16.2812 13.2843 16.2893 13.2432 16.2892Z" fill="#6C0FBC"/>
<path d="M13.8911 17.9869C13.6369 17.9869 13.3884 17.9114 13.1771 17.7702C12.9657 17.6289 12.801 17.4282 12.7038 17.1933C12.6065 16.9585 12.5811 16.7001 12.6307 16.4507C12.6804 16.2014 12.8028 15.9724 12.9826 15.7927C13.1623 15.613 13.3913 15.4906 13.6407 15.4411C13.89 15.3915 14.1484 15.417 14.3832 15.5143C14.6181 15.6116 14.8188 15.7763 14.96 15.9877C15.1012 16.1991 15.1765 16.4476 15.1765 16.7018C15.1761 17.0426 15.0406 17.3692 14.7996 17.6102C14.5586 17.8511 14.2319 17.9866 13.8911 17.9869ZM13.8911 16.0414C13.7605 16.0414 13.6329 16.0802 13.5244 16.1527C13.4158 16.2253 13.3312 16.3284 13.2812 16.449C13.2313 16.5697 13.2182 16.7024 13.2437 16.8305C13.2692 16.9585 13.3321 17.0762 13.4244 17.1685C13.5167 17.2608 13.6344 17.3237 13.7624 17.3492C13.8905 17.3747 14.0232 17.3616 14.1439 17.3117C14.2645 17.2617 14.3676 17.1771 14.4402 17.0685C14.5127 16.96 14.5515 16.8324 14.5515 16.7018C14.5514 16.5267 14.4817 16.3588 14.3579 16.235C14.2341 16.1112 14.0662 16.0415 13.8911 16.0414ZM10.6486 16.2892C10.6021 16.2892 10.5562 16.2788 10.5143 16.2588C10.4723 16.2389 10.4353 16.2098 10.406 16.1737C10.3767 16.1376 10.3558 16.0955 10.3448 16.0503C10.3338 16.0052 10.333 15.9581 10.3425 15.9126L10.6669 14.3678C10.6842 14.287 10.7328 14.2164 10.8021 14.1714C10.8714 14.1263 10.9556 14.1105 11.0365 14.1275C11.1174 14.1444 11.1882 14.1927 11.2336 14.2618C11.2789 14.3308 11.2951 14.4151 11.2785 14.496L10.9541 16.0408C10.9394 16.111 10.901 16.1739 10.8454 16.2192C10.7898 16.2644 10.7203 16.2891 10.6486 16.2892Z" fill="#6C0FBC"/>
<path d="M9.99964 17.9869C9.74544 17.9868 9.49696 17.9114 9.28562 17.7702C9.07428 17.6289 8.90957 17.4282 8.81232 17.1933C8.71507 16.9585 8.68964 16.7 8.73926 16.4507C8.78889 16.2014 8.91132 15.9724 9.09109 15.7927C9.27085 15.613 9.49988 15.4906 9.7492 15.441C9.99852 15.3915 10.2569 15.417 10.4918 15.5143C10.7266 15.6116 10.9273 15.7763 11.0685 15.9877C11.2097 16.1991 11.2851 16.4476 11.285 16.7018C11.2846 17.0425 11.1491 17.3692 10.9081 17.6101C10.6671 17.8511 10.3404 17.9866 9.99964 17.9869ZM9.99964 16.0414C9.86907 16.0414 9.74144 16.0802 9.63288 16.1527C9.52433 16.2253 9.43972 16.3284 9.38977 16.449C9.33982 16.5697 9.32675 16.7024 9.35223 16.8305C9.37771 16.9585 9.44059 17.0762 9.53292 17.1685C9.62525 17.2608 9.74288 17.3237 9.87094 17.3492C9.99901 17.3747 10.1317 17.3616 10.2524 17.3116C10.373 17.2617 10.4761 17.1771 10.5487 17.0685C10.6213 16.96 10.66 16.8323 10.66 16.7018C10.6598 16.5267 10.5902 16.3589 10.4664 16.2351C10.3426 16.1113 10.1747 16.0416 9.99964 16.0414ZM11.2966 9.55594H8.70264C7.19751 9.55594 6.80048 8.41794 6.78461 8.36957C6.77689 8.34668 6.77187 8.32297 6.76966 8.29892L6.44709 4.74789C6.18555 3.38772 7.30066 2.54269 8.0749 2.21493C8.11281 1.7361 8.33418 1.29041 8.69281 0.970868C9.05144 0.65133 9.51962 0.482638 9.99964 0.499998C10.4797 0.482637 10.9478 0.651328 11.3065 0.970865C11.6651 1.2904 11.8865 1.7361 11.9244 2.21493C12.6986 2.54269 13.8137 3.38772 13.5522 4.74789L13.2296 8.29892C13.2274 8.32297 13.2224 8.34668 13.2147 8.36957C13.1988 8.41794 12.8018 9.55594 11.2966 9.55594ZM7.38825 8.19851C7.50833 8.43857 7.69798 8.63686 7.93245 8.76751C8.16692 8.89816 8.43532 8.95512 8.70264 8.93094H11.2966C11.564 8.95506 11.8325 8.89802 12.067 8.76726C12.3014 8.63649 12.491 8.43807 12.611 8.19791L12.9312 4.6754C12.9322 4.66428 12.9338 4.65322 12.936 4.64228C13.2031 3.30698 11.5389 2.73585 11.5222 2.7302C11.4599 2.70945 11.4058 2.66965 11.3675 2.61644C11.3292 2.56323 11.3085 2.49931 11.3085 2.43372C11.3085 1.14588 10.0649 1.12513 10.0006 1.12497C9.82674 1.11787 9.65334 1.14686 9.49128 1.21011C9.32923 1.27335 9.18203 1.36948 9.05897 1.49244C8.93592 1.6154 8.83966 1.76252 8.77629 1.92452C8.71291 2.08653 8.68378 2.2599 8.69074 2.43372C8.69075 2.49931 8.67012 2.56323 8.63178 2.61644C8.59344 2.66965 8.53933 2.70945 8.47712 2.7302C8.40906 2.75324 6.79743 3.31431 7.06324 4.64228C7.06547 4.65322 7.0671 4.66428 7.06812 4.6754L7.38825 8.19851Z" fill="#6C0FBC"/>
<path d="M10.6488 4.04337H9.35184C9.19621 4.04394 9.04354 4.00087 8.91116 3.91903C8.77878 3.8372 8.672 3.71989 8.60294 3.58042L8.0994 2.57364C8.06233 2.49951 8.05623 2.41368 8.08244 2.33504C8.10866 2.25641 8.16503 2.1914 8.23917 2.15433C8.31331 2.11726 8.39914 2.11116 8.47778 2.13738C8.55641 2.16359 8.62141 2.21997 8.65848 2.2941L9.16202 3.30103C9.17951 3.3364 9.20657 3.36615 9.24013 3.38689C9.27368 3.40764 9.31239 3.41854 9.35184 3.41837H10.6488C10.6883 3.41854 10.727 3.40765 10.7605 3.38694C10.7941 3.36622 10.8211 3.33651 10.8387 3.30119L11.3422 2.2941C11.3793 2.21997 11.4443 2.16359 11.5229 2.13738C11.6016 2.11116 11.6874 2.11726 11.7615 2.15433C11.8357 2.1914 11.892 2.25641 11.9183 2.33504C11.9445 2.41368 11.9384 2.49951 11.9013 2.57364L11.3977 3.58057C11.3286 3.72 11.2219 3.83727 11.0895 3.91908C10.9571 4.00088 10.8044 4.04394 10.6488 4.04337Z" fill="#6C0FBC"/>
<path d="M8.70335 9.55599C8.69725 9.55599 8.69114 9.55584 8.68504 9.55553C8.64407 9.55318 8.60396 9.54278 8.56701 9.52491C8.53005 9.50705 8.49699 9.48208 8.46969 9.45142C8.4424 9.42077 8.42141 9.38504 8.40794 9.34627C8.39446 9.3075 8.38876 9.26646 8.39116 9.22549L8.71525 3.6008C8.72003 3.51808 8.75747 3.44065 8.81934 3.38553C8.88121 3.33042 8.96243 3.30214 9.04515 3.30692C9.12787 3.31169 9.2053 3.34913 9.26042 3.411C9.31553 3.47287 9.34381 3.55409 9.33904 3.63681L9.01494 9.2615C9.01041 9.34109 8.97562 9.41592 8.91768 9.47068C8.85975 9.52543 8.78307 9.55596 8.70335 9.55599Z" fill="#6C0FBC"/>
<path d="M11.2218 8.25891H8.77734C8.69446 8.25891 8.61498 8.22599 8.55637 8.16738C8.49777 8.10878 8.46484 8.02929 8.46484 7.94641C8.46484 7.86353 8.49777 7.78405 8.55637 7.72544C8.61498 7.66684 8.69446 7.63391 8.77734 7.63391H11.2218C11.3047 7.63391 11.3842 7.66684 11.4428 7.72544C11.5014 7.78405 11.5343 7.86353 11.5343 7.94641C11.5343 8.02929 11.5014 8.10878 11.4428 8.16738C11.3842 8.22599 11.3047 8.25891 11.2218 8.25891Z" fill="#6C0FBC"/>
<path d="M12.5941 12.15H7.40552C6.12012 12.15 6.12012 10.5959 6.12012 9.56763C6.12012 8.12323 6.82629 7.71169 6.90686 7.66959C6.97971 7.63135 7.0647 7.62339 7.14338 7.64742C7.22207 7.67145 7.2881 7.72555 7.32715 7.79796C7.3662 7.87038 7.37512 7.95527 7.35197 8.03422C7.32882 8.11317 7.27547 8.17981 7.20349 8.21967C7.17419 8.23767 6.74512 8.52103 6.74512 9.56763C6.74512 10.6385 6.79486 11.525 7.40552 11.525H12.5941C13.2048 11.525 13.2545 10.6385 13.2545 9.56763C13.2545 8.5073 12.8138 8.23035 12.7952 8.21906C12.725 8.1771 12.6738 8.1096 12.6522 8.0307C12.6306 7.9518 12.6405 7.86761 12.6796 7.79578C12.7182 7.72479 12.7831 7.67178 12.8604 7.64818C12.9376 7.62458 13.0211 7.63227 13.0928 7.66959C13.1733 7.71171 13.8795 8.12323 13.8795 9.56763C13.8795 10.5959 13.8795 12.15 12.5941 12.15Z" fill="#6C0FBC"/>
<path d="M8.55787 10.8531C8.50296 10.8532 8.44899 10.8387 8.40142 10.8113C8.35384 10.7839 8.31434 10.7444 8.28687 10.6968C8.25819 10.6471 8.22615 10.5974 8.19319 10.5459C7.89801 10.1413 7.7569 9.64459 7.79524 9.14518C7.80034 9.06247 7.83809 8.98516 7.90018 8.93028C7.93093 8.9031 7.96673 8.88225 8.00554 8.8689C8.04434 8.85556 8.0854 8.85 8.12635 8.85252C8.16731 8.85505 8.20737 8.86561 8.24425 8.88362C8.28112 8.90163 8.31409 8.92672 8.34126 8.95747C8.36844 8.98821 8.38929 9.02401 8.40263 9.06282C8.41598 9.10163 8.42154 9.14268 8.41902 9.18364C8.38835 9.55082 8.49551 9.91626 8.71962 10.2087C8.75776 10.2687 8.79469 10.3265 8.82826 10.3843C8.85569 10.4318 8.87013 10.4857 8.87015 10.5405C8.87016 10.5954 8.85575 10.6493 8.82834 10.6968C8.80094 10.7443 8.76153 10.7837 8.71405 10.8112C8.66657 10.8386 8.61271 10.8531 8.55787 10.8531Z" fill="#6C0FBC"/>
<path d="M11.9456 12.15C11.8826 12.15 11.8211 12.131 11.7691 12.0954C11.7171 12.0599 11.6771 12.0094 11.6542 11.9507L11.2281 10.853H8.77149L8.34546 11.9507C8.31531 12.0279 8.25579 12.0899 8.17997 12.1232C8.10415 12.1565 8.01822 12.1583 7.94104 12.1283C7.86385 12.0984 7.80171 12.039 7.76825 11.9632C7.7348 11.8875 7.73275 11.8016 7.76257 11.7243L8.26611 10.4275C8.28892 10.3687 8.32895 10.3182 8.38097 10.2826C8.43298 10.247 8.49453 10.228 8.55756 10.228H11.4421C11.5051 10.228 11.5667 10.247 11.6187 10.2826C11.6707 10.3182 11.7107 10.3687 11.7335 10.4275L12.2371 11.7243C12.2555 11.7717 12.2622 11.8228 12.2564 11.8734C12.2506 11.9239 12.2325 11.9722 12.2038 12.0142C12.1751 12.0561 12.1365 12.0904 12.0915 12.1141C12.0466 12.1378 11.9965 12.1501 11.9456 12.15ZM6.46375 10.853C4.48926 10.853 4.48926 8.90936 4.48926 8.27063C4.48926 8.18775 4.52218 8.10826 4.58079 8.04966C4.63939 7.99105 4.71888 7.95813 4.80176 7.95813C4.88464 7.95813 4.96412 7.99105 5.02273 8.04966C5.08133 8.10826 5.11426 8.18775 5.11426 8.27063C5.11426 9.66086 5.5052 10.228 6.46375 10.228C6.54663 10.228 6.62611 10.261 6.68472 10.3196C6.74332 10.3782 6.77625 10.4576 6.77625 10.5405C6.77625 10.6234 6.74332 10.7029 6.68472 10.7615C6.62611 10.8201 6.54663 10.853 6.46375 10.853Z" fill="#6C0FBC"/>
<path d="M4.10315 8.75164C3.98208 8.75086 3.86475 8.70955 3.7699 8.63431C3.69124 8.57101 3.62769 8.49096 3.58388 8.4C3.54006 8.30904 3.51708 8.20945 3.5166 8.10849V7.13574C3.51659 7.0947 3.52467 7.05406 3.54037 7.01614C3.55607 6.97822 3.57909 6.94377 3.60811 6.91475C3.63713 6.88573 3.67158 6.86271 3.7095 6.84701C3.74742 6.83131 3.78806 6.82323 3.8291 6.82324H5.7746C5.81564 6.82323 5.85628 6.83131 5.8942 6.84701C5.93212 6.86271 5.96657 6.88573 5.99559 6.91475C6.02461 6.94377 6.04763 6.97822 6.06333 7.01614C6.07903 7.05406 6.08711 7.0947 6.0871 7.13574V7.78424C6.08226 7.93807 6.02339 8.08528 5.92081 8.20002C5.81823 8.31477 5.67851 8.3897 5.52618 8.41168L4.22888 8.73608C4.18777 8.7464 4.14554 8.75162 4.10315 8.75164ZM4.14159 7.44824V8.10849L4.14221 8.11352L5.37482 7.80529C5.4095 7.79915 5.44223 7.78487 5.47034 7.76364L5.46637 7.44824H4.14159ZM9.35156 13.4471C9.31052 13.4471 9.26987 13.439 9.23194 13.4233C9.19402 13.4076 9.15956 13.3846 9.13054 13.3556C9.10151 13.3266 9.0785 13.2921 9.0628 13.2542C9.0471 13.2163 9.03904 13.1756 9.03906 13.1346V11.8376C9.03906 11.7547 9.07199 11.6752 9.13059 11.6166C9.1892 11.558 9.26868 11.5251 9.35156 11.5251C9.43444 11.5251 9.51393 11.558 9.57253 11.6166C9.63114 11.6752 9.66406 11.7547 9.66406 11.8376V13.1346C9.66408 13.1756 9.65602 13.2163 9.64032 13.2542C9.62463 13.2921 9.60161 13.3266 9.57259 13.3556C9.54356 13.3846 9.5091 13.4076 9.47118 13.4233C9.43325 13.439 9.39261 13.4471 9.35156 13.4471Z" fill="#6C0FBC"/>
<path d="M10.9731 14.7443H9.02734C8.9863 14.7443 8.94565 14.7363 8.90773 14.7206C8.8698 14.7049 8.83534 14.6819 8.80632 14.6528C8.7773 14.6238 8.75428 14.5894 8.73858 14.5514C8.72289 14.5135 8.71482 14.4729 8.71484 14.4318V13.1345C8.71484 13.0516 8.74777 12.9722 8.80637 12.9136C8.86498 12.8549 8.94446 12.822 9.02734 12.822C9.11022 12.822 9.18971 12.8549 9.24831 12.9136C9.30692 12.9722 9.33984 13.0516 9.33984 13.1345V14.1193H10.6606V13.1345C10.6606 13.0516 10.6936 12.9722 10.7522 12.9136C10.8108 12.8549 10.8903 12.822 10.9731 12.822C11.056 12.822 11.1355 12.8549 11.1941 12.9136C11.2527 12.9722 11.2856 13.0516 11.2856 13.1345V14.4318C11.2857 14.4729 11.2776 14.5135 11.2619 14.5514C11.2462 14.5894 11.2232 14.6238 11.1942 14.6528C11.1651 14.6819 11.1307 14.7049 11.0928 14.7206C11.0548 14.7363 11.0142 14.7443 10.9731 14.7443Z" fill="#6C0FBC"/>
<path d="M6.75726 16.2892C6.71622 16.2892 6.67557 16.2811 6.63765 16.2655C6.59972 16.2498 6.56526 16.2267 6.53624 16.1977C6.50722 16.1687 6.4842 16.1342 6.4685 16.0963C6.45281 16.0584 6.44474 16.0177 6.44476 15.9767V15.4045C6.44473 15.3433 6.46267 15.2835 6.49637 15.2324C6.53006 15.1814 6.57802 15.1413 6.63428 15.1173L8.90417 14.1447C8.98034 14.1121 9.06634 14.1111 9.14326 14.1419C9.22018 14.1727 9.28171 14.2327 9.31433 14.3089C9.34695 14.3851 9.34797 14.4711 9.31718 14.548C9.28639 14.6249 9.22631 14.6864 9.15015 14.7191L7.06976 15.6105V15.9767C7.06979 16.0177 7.06172 16.0584 7.04602 16.0963C7.03033 16.1342 7.00731 16.1687 6.97829 16.1977C6.94926 16.2267 6.91481 16.2498 6.87688 16.2655C6.83896 16.2811 6.79831 16.2892 6.75726 16.2892ZM5.45996 16.2892C5.41892 16.2892 5.37827 16.2811 5.34034 16.2655C5.30242 16.2498 5.26796 16.2267 5.23894 16.1977C5.20992 16.1687 5.1869 16.1342 5.1712 16.0963C5.1555 16.0584 5.14744 16.0177 5.14746 15.9767V14.4319C5.14742 14.3677 5.16714 14.3051 5.20394 14.2526C5.24075 14.2001 5.29285 14.1602 5.35315 14.1383L8.92034 12.8413C8.99814 12.8132 9.08391 12.8171 9.15882 12.8522C9.23374 12.8873 9.2917 12.9506 9.31998 13.0283C9.34826 13.1061 9.34456 13.1919 9.30969 13.2669C9.27482 13.3419 9.21162 13.4 9.13396 13.4285L5.77246 14.6507V15.9767C5.77248 16.0177 5.76442 16.0584 5.74872 16.0963C5.73302 16.1342 5.71001 16.1687 5.68098 16.1977C5.65196 16.2267 5.6175 16.2498 5.57958 16.2655C5.54165 16.2811 5.50101 16.2892 5.45996 16.2892Z" fill="#6C0FBC"/>
<path d="M6.10865 17.9868C5.85443 17.9868 5.60592 17.9115 5.39454 17.7703C5.18316 17.6291 5.0184 17.4283 4.92111 17.1935C4.82381 16.9586 4.79834 16.7002 4.84793 16.4509C4.89752 16.2015 5.01993 15.9725 5.19968 15.7928C5.37944 15.613 5.60846 15.4906 5.85779 15.441C6.10712 15.3914 6.36555 15.4169 6.60041 15.5142C6.83526 15.6115 7.03599 15.7762 7.1772 15.9876C7.31842 16.199 7.39377 16.4475 7.39374 16.7017C7.39334 17.0424 7.25782 17.3691 7.01691 17.61C6.77599 17.8509 6.44935 17.9864 6.10865 17.9868ZM6.10865 16.0413C5.97806 16.0413 5.8504 16.08 5.7418 16.1525C5.63321 16.225 5.54856 16.3281 5.49856 16.4488C5.44856 16.5694 5.43545 16.7021 5.4609 16.8302C5.48635 16.9583 5.5492 17.076 5.64152 17.1683C5.73383 17.2607 5.85147 17.3236 5.97954 17.3491C6.10761 17.3746 6.24036 17.3616 6.36102 17.3116C6.48168 17.2617 6.58481 17.1771 6.65739 17.0685C6.72996 16.9599 6.76871 16.8323 6.76874 16.7017C6.76852 16.5267 6.69891 16.3589 6.57517 16.2351C6.45144 16.1113 6.28367 16.0416 6.10865 16.0413ZM9.35114 16.2891C9.27945 16.289 9.20997 16.2643 9.15435 16.2191C9.09873 16.1739 9.06035 16.1109 9.04566 16.0407L8.72125 14.4959C8.70467 14.415 8.72082 14.3308 8.76617 14.2617C8.81152 14.1926 8.88237 14.1444 8.96323 14.1274C9.0441 14.1105 9.12838 14.1262 9.19764 14.1713C9.26691 14.2163 9.31551 14.287 9.33282 14.3677L9.65722 15.9125C9.66565 15.9527 9.66608 15.9941 9.65849 16.0344C9.65091 16.0748 9.63545 16.1132 9.613 16.1475C9.59056 16.1819 9.56156 16.2115 9.52768 16.2346C9.49379 16.2578 9.45568 16.274 9.41552 16.2824C9.39436 16.2869 9.37278 16.2892 9.35114 16.2891ZM11.4419 10.853C11.3871 10.853 11.3332 10.8385 11.2857 10.8111C11.2382 10.7836 11.1988 10.7442 11.1714 10.6967C11.144 10.6492 11.1296 10.5953 11.1296 10.5405C11.1296 10.4856 11.1441 10.4318 11.1715 10.3843C11.2051 10.3264 11.242 10.2686 11.2802 10.2087C11.5043 9.91619 11.6114 9.55074 11.5808 9.18357C11.5757 9.10085 11.6036 9.01949 11.6585 8.9574C11.7134 8.8953 11.7907 8.85755 11.8734 8.85245C11.9561 8.84735 12.0375 8.87532 12.0996 8.93021C12.1617 8.98509 12.1994 9.0624 12.2045 9.14511C12.2429 9.64452 12.1018 10.1412 11.8066 10.5459C11.7736 10.5973 11.7416 10.647 11.7129 10.6968C11.6854 10.7443 11.6459 10.7838 11.5984 10.8113C11.5508 10.8387 11.4968 10.8531 11.4419 10.853ZM13.536 10.853C13.4531 10.853 13.3736 10.8201 13.315 10.7615C13.2564 10.7029 13.2235 10.6234 13.2235 10.5405C13.2235 10.4576 13.2564 10.3782 13.315 10.3196C13.3736 10.261 13.4531 10.228 13.536 10.228C14.4946 10.228 14.8855 9.66086 14.8855 8.27063C14.8855 8.18775 14.9184 8.10826 14.977 8.04966C15.0356 7.99105 15.1151 7.95813 15.198 7.95813C15.2809 7.95813 15.3604 7.99105 15.419 8.04966C15.4776 8.10826 15.5105 8.18775 15.5105 8.27063C15.5105 8.90936 15.5105 10.853 13.536 10.853Z" fill="#6C0FBC"/>
<path d="M15.897 8.75164C15.8545 8.75162 15.8122 8.7464 15.7709 8.73608L14.4739 8.41168C14.3216 8.3897 14.1819 8.31477 14.0793 8.20002C13.9767 8.08528 13.9179 7.93807 13.913 7.78424V7.13574C13.913 7.0947 13.9211 7.05406 13.9368 7.01614C13.9525 6.97822 13.9755 6.94377 14.0045 6.91475C14.0335 6.88573 14.068 6.86271 14.1059 6.84701C14.1438 6.83131 14.1845 6.82323 14.2255 6.82324H16.171C16.2121 6.82323 16.2527 6.83131 16.2906 6.84701C16.3285 6.86271 16.363 6.88573 16.392 6.91475C16.421 6.94377 16.4441 6.97822 16.4598 7.01614C16.4755 7.05406 16.4835 7.0947 16.4835 7.13574V8.10849C16.483 8.20945 16.4601 8.30904 16.4162 8.4C16.3724 8.49096 16.3089 8.57101 16.2302 8.63431C16.1354 8.70955 16.018 8.75086 15.897 8.75164ZM14.5417 7.77937C14.5511 7.77937 14.5786 7.79371 14.6253 7.80531L15.8579 8.11354L15.8585 8.1085V7.44824H14.538V7.78134C14.538 7.78134 14.5396 7.77937 14.5417 7.77937ZM10.6486 13.4471H9.35156C9.26868 13.4471 9.1892 13.4142 9.13059 13.3556C9.07199 13.2969 9.03906 13.2175 9.03906 13.1346C9.03906 13.0517 9.07199 12.9722 9.13059 12.9136C9.1892 12.855 9.26868 12.8221 9.35156 12.8221H10.6486C10.7314 12.8221 10.8109 12.855 10.8695 12.9136C10.9281 12.9722 10.9611 13.0517 10.9611 13.1346C10.9611 13.2175 10.9281 13.2969 10.8695 13.3556C10.8109 13.4142 10.7314 13.4471 10.6486 13.4471Z" fill="#6C0FBC"/>
</g>
<defs>
<clipPath id="clip0_315_296">
<rect width="20" height="20" fill="white" transform="translate(0 0.5)"/>
</clipPath>
</defs>
</svg>
