<svg width="53" height="48" viewBox="0 0 53 48" fill="none" xmlns="http://www.w3.org/2000/svg">
<g id="logo">
<g id="Group">
<path id="Vector" d="M23.9439 10.4249C23.8047 10.3759 23.6246 10.2949 23.4037 10.1819C22.1166 9.52411 20.6707 9.17939 19.2032 9.14775C14.1323 9.03811 9.8206 12.7226 9.13055 17.7295C8.98528 18.7795 8.92513 21.2445 9.69122 22.16C11.523 24.3473 13.3499 26.5381 15.1719 28.7322C15.4269 29.0396 15.5763 29.2996 15.6202 29.5121C15.7632 30.1936 15.265 30.5756 14.6248 30.6231C13.2917 30.721 11.9562 30.8261 10.6185 30.9384C10.6102 30.939 10.6021 30.9412 10.5946 30.9449C10.5872 30.9487 10.5806 30.9538 10.5752 30.9602C10.5698 30.9665 10.5657 30.9738 10.5632 30.9817C10.5607 30.9896 10.5598 30.998 10.5606 31.0062C10.5863 31.2843 10.6415 31.5581 10.7263 31.8279C11.9884 35.8198 15.4397 38.703 19.6901 38.9246C21.6683 39.0285 23.5603 38.5911 25.2559 37.5886C25.4277 37.4869 25.6089 37.401 25.7996 37.3309C25.8366 37.3174 25.8745 37.3159 25.913 37.3264C27.3669 37.7469 28.8458 37.9345 30.3541 37.6926C35.9471 36.7963 39.8048 31.681 38.721 26.0412C38.6029 25.4263 38.3684 24.6725 38.0173 23.7796C37.8686 23.4021 38.587 21.7576 38.6199 21.6276C40.6322 13.62 33.0269 6.88052 25.3195 9.85979C24.9597 9.9988 24.4955 10.2701 24.0563 10.4249C24.0192 10.4385 23.9817 10.4385 23.9439 10.4249Z" stroke="#808080" stroke-width="2"/>
<path id="Vector_2" d="M26.7809 18.5071C27.026 19.4825 27.6366 20.7822 28.8306 20.8319C29.6546 20.8659 30.3719 20.1764 30.6669 19.4452C31.2178 18.0806 31.2348 16.6886 30.718 15.269C30.3991 14.3931 29.6455 13.5205 28.5605 13.7059C28.4091 13.7315 28.355 13.8178 28.3982 13.9647C28.7602 15.191 28.0724 15.79 26.95 15.8691C26.9322 15.8702 26.9148 15.8751 26.8989 15.8835C26.8831 15.8918 26.8691 15.9035 26.858 15.9177C26.5164 16.354 26.6526 17.9951 26.7809 18.5071Z" stroke="#808080" stroke-width="2"/>
<path id="Vector_3" d="M17.7536 21.0116C18.1297 21.359 18.5484 21.4859 19.01 21.3925C21.264 20.9382 21.289 16.9677 20.4446 15.4622C20.0485 14.7581 19.3425 14.0009 18.4278 14.2145C18.3007 14.2439 18.2541 14.3324 18.2882 14.4801C18.5447 15.6216 18.0192 16.3009 16.8763 16.4071C16.6652 16.4263 16.6255 16.5156 16.5971 16.7021C16.3599 18.3059 16.5176 19.8735 17.7536 21.0116Z" stroke="#808080" stroke-width="2"/>
<path id="Vector_4" d="M21.7511 23.5694C21.4368 25.3879 23.4785 26.1214 24.9211 25.5947C25.9925 25.2048 26.527 24.1887 26.0413 23.0754C25.9323 22.8238 25.7254 22.6576 25.4204 22.577C25.403 22.5725 25.3848 22.5725 25.3673 22.5768C25.3499 22.5812 25.3338 22.5898 25.3206 22.6019C24.6521 23.2246 23.9507 23.6293 23.0666 23.0709C22.9039 22.9677 22.7378 22.8713 22.5683 22.7816C22.1302 22.551 21.8068 23.2484 21.7511 23.5694Z" stroke="#808080" stroke-width="2"/>
</g>
<path id="Vector_5" d="M46.9152 23.0077C48.1077 23.0144 49.3103 23.0152 50.5232 23.0099C51.9918 23.0031 52.1644 23.8587 51.4085 24.9302C49.9134 27.0527 48.4115 29.1708 46.9027 31.2843C46.7472 31.5001 46.5611 31.8042 46.5066 32.0619C44.668 40.8459 37.1444 46.8079 28.1443 46.8033C25.4499 46.8018 22.7552 46.8015 20.06 46.8022C19.0999 46.8022 18.3444 46.7743 17.7935 46.7186C8.85128 45.802 1.90425 38.7471 1.19491 29.8127C1.15632 29.3312 1.13703 28.5781 1.13703 27.5534C1.13627 25.238 1.13362 22.9225 1.12908 20.6071C1.12681 19.6117 1.14649 18.859 1.1881 18.3489C1.961 8.75331 9.57765 1.62952 19.2009 1.25881C19.2871 1.2558 20.0434 1.246 21.4696 1.22943C25.0992 1.18874 27.6366 1.20569 29.0818 1.28029C38.2204 1.75046 45.4636 8.32721 46.72 17.3407C46.9651 19.0982 46.8414 21.0953 46.8448 22.9376C46.8448 22.9562 46.8523 22.974 46.8655 22.9871C46.8787 23.0003 46.8966 23.0077 46.9152 23.0077ZM23.9438 10.4249C23.8046 10.3759 23.6245 10.2949 23.4036 10.1819C22.1166 9.52412 20.6706 9.1794 19.2032 9.14776C14.1322 9.03812 9.82053 12.7226 9.13048 17.7295C8.9852 18.7795 8.92505 21.2445 9.69114 22.16C11.5229 24.3473 13.3498 26.5381 15.1718 28.7322C15.4268 29.0396 15.5762 29.2996 15.6201 29.5121C15.7631 30.1936 15.2649 30.5756 14.6248 30.6231C13.2916 30.721 11.9561 30.8262 10.6184 30.9384C10.6101 30.939 10.602 30.9412 10.5945 30.9449C10.5871 30.9487 10.5805 30.9539 10.5751 30.9602C10.5697 30.9665 10.5656 30.9738 10.5631 30.9817C10.5606 30.9896 10.5597 30.998 10.5605 31.0062C10.5862 31.2843 10.6415 31.5582 10.7262 31.8279C11.9883 35.8198 15.4397 38.703 19.69 38.9246C21.6683 39.0285 23.5602 38.5911 25.2558 37.5886C25.4276 37.4869 25.6088 37.401 25.7995 37.331C25.8366 37.3174 25.8744 37.3159 25.913 37.3264C27.3668 37.7469 28.8457 37.9345 30.354 37.6926C35.9471 36.7964 39.8048 31.681 38.7209 26.0412C38.6028 25.4263 38.3683 24.6725 38.0172 23.7796C37.8685 23.4021 38.587 21.7576 38.6199 21.6277C40.6321 13.62 33.0268 6.88053 25.3194 9.8598C24.9596 9.99881 24.4954 10.2701 24.0562 10.4249C24.0191 10.4385 23.9817 10.4385 23.9438 10.4249Z" fill="black"/>
<path id="Vector_6" d="M24.0563 10.4249C24.4955 10.2701 24.9597 9.9988 25.3195 9.85979C33.0269 6.88052 40.6322 13.62 38.6199 21.6276C38.587 21.7576 37.8686 23.4021 38.0173 23.7796C38.3684 24.6725 38.6029 25.4263 38.721 26.0412C39.8048 31.681 35.9471 36.7963 30.3541 37.6926C28.8458 37.9345 27.3669 37.7469 25.913 37.3264C25.8745 37.3159 25.8366 37.3174 25.7996 37.3309C25.6089 37.401 25.4277 37.4869 25.2559 37.5886C23.5603 38.5911 21.6683 39.0285 19.6901 38.9246C15.4397 38.703 11.9884 35.8198 10.7263 31.8279C10.6415 31.5581 10.5863 31.2843 10.5606 31.0062C10.5598 30.998 10.5607 30.9896 10.5632 30.9817C10.5657 30.9738 10.5698 30.9665 10.5752 30.9602C10.5806 30.9538 10.5872 30.9487 10.5946 30.9449C10.6021 30.9412 10.6102 30.939 10.6185 30.9384C11.9562 30.8261 13.2917 30.721 14.6248 30.6231C15.265 30.5756 15.7632 30.1936 15.6202 29.5121C15.5763 29.2996 15.4269 29.0396 15.1719 28.7322C13.3499 26.5381 11.523 24.3473 9.69122 22.16C8.92513 21.2445 8.98528 18.7795 9.13055 17.7295C9.8206 12.7226 14.1323 9.03811 19.2032 9.14775C20.6707 9.17939 22.1166 9.52411 23.4037 10.1819C23.6246 10.2949 23.8047 10.3759 23.9439 10.4249C23.9817 10.4385 24.0192 10.4385 24.0563 10.4249ZM26.7813 18.5071C27.0264 19.4825 27.637 20.7822 28.831 20.832C29.655 20.8659 30.3723 20.1764 30.6674 19.4452C31.2182 18.0806 31.2352 16.6886 30.7184 15.269C30.3995 14.3931 29.6459 13.5206 28.5609 13.7059C28.4096 13.7315 28.3555 13.8178 28.3986 13.9647C28.7606 15.191 28.0729 15.7901 26.9504 15.8692C26.9326 15.8702 26.9152 15.8751 26.8993 15.8835C26.8835 15.8919 26.8695 15.9036 26.8585 15.9178C26.5168 16.354 26.653 17.9951 26.7813 18.5071ZM17.7539 21.0117C18.1299 21.359 18.5487 21.486 19.0103 21.3926C21.2643 20.9382 21.2893 16.9677 20.4449 15.4623C20.0488 14.7582 19.3428 14.0009 18.4281 14.2145C18.3009 14.2439 18.2544 14.3324 18.2885 14.4801C18.545 15.6217 18.0195 16.3009 16.8766 16.4072C16.6655 16.4264 16.6258 16.5157 16.5974 16.7021C16.3602 18.3059 16.5179 19.8735 17.7539 21.0117ZM21.7512 23.5694C21.4368 25.3879 23.4786 26.1214 24.9211 25.5947C25.9925 25.2048 26.5271 24.1887 26.0413 23.0755C25.9323 22.8238 25.7254 22.6577 25.4205 22.577C25.4031 22.5726 25.3848 22.5725 25.3674 22.5768C25.3499 22.5812 25.3338 22.5898 25.3206 22.6019C24.6521 23.2247 23.9507 23.6293 23.0666 23.0709C22.9039 22.9677 22.7378 22.8713 22.5684 22.7816C22.1303 22.551 21.8068 23.2484 21.7512 23.5694Z" fill="white"/>
<path id="Vector_7" d="M28.8316 20.8319C27.6376 20.7822 27.027 19.4825 26.7818 18.5071C26.6536 17.9951 26.5174 16.354 26.859 15.9177C26.8701 15.9035 26.884 15.8918 26.8999 15.8835C26.9157 15.8751 26.9332 15.8702 26.951 15.8691C28.0734 15.79 28.7612 15.191 28.3992 13.9647C28.356 13.8178 28.4101 13.7315 28.5614 13.7059C29.6465 13.5205 30.4001 14.3931 30.719 15.269C31.2358 16.6886 31.2187 18.0806 30.6679 19.4452C30.3728 20.1764 29.6555 20.8659 28.8316 20.8319Z" fill="black"/>
<path id="Vector_8" d="M17.7536 21.0116C16.5176 19.8735 16.3599 18.3059 16.5971 16.7021C16.6255 16.5156 16.6652 16.4263 16.8763 16.4071C18.0192 16.3009 18.5447 15.6216 18.2882 14.4801C18.2541 14.3324 18.3007 14.2439 18.4278 14.2145C19.3425 14.0009 20.0485 14.7581 20.4446 15.4622C21.289 16.9677 21.264 20.9382 19.01 21.3925C18.5484 21.4859 18.1297 21.359 17.7536 21.0116Z" fill="black"/>
<path id="Vector_9" d="M24.9211 25.5947C23.4785 26.1214 21.4368 25.3879 21.7511 23.5694C21.8068 23.2484 22.1302 22.551 22.5683 22.7816C22.7378 22.8713 22.9039 22.9677 23.0666 23.0709C23.9507 23.6293 24.6521 23.2246 25.3206 22.6019C25.3338 22.5898 25.3499 22.5812 25.3673 22.5768C25.3848 22.5725 25.403 22.5725 25.4204 22.577C25.7254 22.6576 25.9323 22.8238 26.0413 23.0754C26.527 24.1887 25.9925 25.2048 24.9211 25.5947Z" fill="black"/>
</g>
</svg>
