<svg width="50" height="50" viewBox="0 0 50 50" fill="none" xmlns="http://www.w3.org/2000/svg">
<path d="M25 2C11.3261 2 2 11.3261 2 25.0001C2 38.6739 11.3261 48 25 48C38.6739 48 48 38.6739 48 25.0001C48 11.3261 38.6739 2 25 2ZM25 44.7297C14.1037 44.7297 5.27035 35.8964 5.27035 25.0001C5.27035 14.1036 14.1037 5.27032 25 5.27032C35.8963 5.27032 44.7297 14.1036 44.7297 25.0001C44.7297 35.8964 35.8963 44.7297 25 44.7297Z" fill="#6C0FBC"/>
<path d="M33.8211 27.1196H22.337V25.8152H26.6151C29.4196 25.8152 31.5305 25.1465 32.9482 23.96C34.3657 22.7736 35.0745 20.9923 35.0745 18.6911C35.0745 17.6125 34.8996 16.6229 34.5506 15.7601C34.2011 14.8973 33.6899 14.1586 33.0174 13.5627C32.3445 12.9671 31.546 12.6047 30.6214 12.3477C29.6864 12.0808 28.3511 12.011 26.6152 12.011H20.7449C19.7381 12.011 18.9656 12.1581 18.5033 12.5896C18.041 13.021 17.7719 13.6715 17.7719 14.6781V22.4456H15.631C15.2714 22.4456 14.9458 22.561 14.9458 22.8479V24.9243C14.9458 25.2115 15.2715 25.5978 15.631 25.5978H17.7718V27.1196H15.6309C15.2713 27.1196 14.9457 27.2349 14.9457 27.5218V29.5983C14.9457 29.8854 15.2714 30.2717 15.6309 30.2717H17.7718V35.2767C17.7718 36.1808 18.0202 36.8664 18.4415 37.3338C18.8626 37.8011 19.4363 38.0349 20.1248 38.0349C20.7821 38.0349 21.2925 37.7984 21.7239 37.3261C22.1555 36.8537 22.337 36.1603 22.337 35.246V30.2717H33.8211C34.1808 30.2717 34.4022 29.8853 34.4022 29.5983V27.5218C34.4022 27.2349 34.1808 27.1196 33.8211 27.1196ZM22.337 15.3804H25.5059C27.5499 15.3804 28.9007 15.679 29.5582 16.3466C30.1437 16.9734 30.4364 17.7672 30.4364 18.7635C30.4364 19.5954 30.2462 20.2596 29.8664 20.773C29.4862 21.2868 28.9343 21.7143 28.2101 21.9402C27.4858 22.1663 26.5844 22.3369 25.5059 22.3369H22.337V15.3804Z" fill="#6C0FBC"/>
</svg>
