<svg width="20" height="21" viewBox="0 0 20 21" fill="none" xmlns="http://www.w3.org/2000/svg">
<g id="icon/gamepad 02">
<path id="Vector" opacity="0.4" d="M18.5062 4.69102C17.7593 3.44622 16.4315 2.61633 14.9377 2.61633H4.97926C3.48547 2.61633 2.1577 3.44622 1.41078 4.69102C0.49793 6.35079 0 8.17653 0 10.0852C0 14.6495 1.82574 18.384 4.14937 18.384C5.39418 18.384 6.39004 17.2222 7.13691 14.8155C7.21988 14.4836 7.55184 14.2346 7.9668 14.2346H12.0332C12.3652 14.2346 12.6971 14.4836 12.8631 14.8155C13.61 17.2222 14.6058 18.384 15.8506 18.384C18.1743 18.384 20 14.6495 20 10.0852C19.917 8.17653 19.4191 6.35079 18.5062 4.69102Z" fill="#6C0FBC"/>
<path id="Vector_2" d="M7.49962 8.00001H6.66629V7.16669C6.66629 6.66669 6.33297 6.33337 5.83297 6.33337C5.33297 6.33337 4.99965 6.66669 4.99965 7.16669V8.00001H4.16633C3.66633 8.00001 3.33301 8.33333 3.33301 8.83333C3.33301 9.33333 3.66633 9.66665 4.16633 9.66665H4.99961V10.5C4.99961 11 5.33293 11.3333 5.83293 11.3333C6.33293 11.3333 6.66625 11 6.66625 10.5V9.66669H7.49962C7.99962 9.66669 8.33294 9.33337 8.33294 8.83337C8.33294 8.33333 7.99962 8.00001 7.49962 8.00001Z" fill="#6C0FBC"/>
<path id="Vector_3" d="M15.417 8.83325C16.1073 8.83325 16.667 8.27361 16.667 7.58325C16.667 6.8929 16.1073 6.33325 15.417 6.33325C14.7266 6.33325 14.167 6.8929 14.167 7.58325C14.167 8.27361 14.7266 8.83325 15.417 8.83325Z" fill="#6C0FBC"/>
<path id="Vector_4" d="M12.917 11.3333C13.6073 11.3333 14.167 10.7736 14.167 10.0833C14.167 9.3929 13.6073 8.83325 12.917 8.83325C12.2266 8.83325 11.667 9.3929 11.667 10.0833C11.667 10.7736 12.2266 11.3333 12.917 11.3333Z" fill="#6C0FBC"/>
</g>
</svg>
