<svg width="18" height="17" viewBox="0 0 18 17" fill="none" xmlns="http://www.w3.org/2000/svg">
<g id="Group 75">
<path id="Vector 924 (Stroke)" opacity="0.4" fill-rule="evenodd" clip-rule="evenodd" d="M9 1.625C5.20304 1.625 2.125 4.70304 2.125 8.5V12.4583H0.875V8.5C0.875 4.01269 4.51269 0.375 9 0.375C13.4873 0.375 17.125 4.01269 17.125 8.5V12.4583H15.875V8.5C15.875 4.70304 12.797 1.625 9 1.625Z" fill="#6C0FBC"/>
<g id="Vector">
<path fill-rule="evenodd" clip-rule="evenodd" d="M10.875 11.8334C10.875 10.1075 12.2741 8.70837 14 8.70837C15.7259 8.70837 17.125 10.1075 17.125 11.8334V13.5C17.125 15.2259 15.7259 16.625 14 16.625C12.2741 16.625 10.875 15.2259 10.875 13.5V11.8334Z" fill="#6C0FBC"/>
<path fill-rule="evenodd" clip-rule="evenodd" d="M0.875 11.8334C0.875 10.1075 2.27411 8.70837 4 8.70837C5.72589 8.70837 7.125 10.1075 7.125 11.8334V13.5C7.125 15.2259 5.72589 16.625 4 16.625C2.27411 16.625 0.875 15.2259 0.875 13.5V11.8334Z" fill="#6C0FBC"/>
</g>
</g>
</svg>
