<svg width="20" height="21" viewBox="0 0 20 21" fill="none" xmlns="http://www.w3.org/2000/svg">
<path opacity="0.4" d="M6.66699 5.49996C6.66699 3.65901 8.15938 2.16663 10.0003 2.16663C11.8413 2.16663 13.3337 3.65901 13.3337 5.49996V10.5C13.3337 12.3409 11.8413 13.8333 10.0003 13.8333C8.15938 13.8333 6.66699 12.3409 6.66699 10.5V5.49996Z" fill="#6C0FBC"/>
<path fill-rule="evenodd" clip-rule="evenodd" d="M4.79199 9.66663C4.79199 9.32145 4.51217 9.04163 4.16699 9.04163C3.82181 9.04163 3.54199 9.32145 3.54199 9.66663V10.5C3.54199 13.856 6.10174 16.6141 9.37533 16.9284V18.2083H7.50033C7.15515 18.2083 6.87533 18.4881 6.87533 18.8333C6.87533 19.1785 7.15515 19.4583 7.50033 19.4583H12.5003C12.8455 19.4583 13.1253 19.1785 13.1253 18.8333C13.1253 18.4881 12.8455 18.2083 12.5003 18.2083H10.6253V16.9284C13.8989 16.6141 16.4587 13.856 16.4587 10.5V9.66663C16.4587 9.32145 16.1788 9.04163 15.8337 9.04163C15.4885 9.04163 15.2087 9.32145 15.2087 9.66663V10.5C15.2087 13.3764 12.8768 15.7083 10.0003 15.7083C7.12384 15.7083 4.79199 13.3764 4.79199 10.5V9.66663Z" fill="#6C0FBC"/>
</svg>
