<svg width="20" height="21" viewBox="0 0 20 21" fill="none" xmlns="http://www.w3.org/2000/svg">
<g id="icon/tablet">
<path id="Vector" opacity="0.4" d="M15.9806 19.6667H4.0194C3.17888 19.6667 2.5 18.9817 2.5 18.1335V2.86659C2.5 2.01843 3.17888 1.33337 4.0194 1.33337H15.9806C16.8211 1.33337 17.5 2.01843 17.5 2.86659V18.1335C17.4677 18.9817 16.8211 19.6667 15.9806 19.6667Z" fill="#6C0FBC"/>
<path id="Vector_2" d="M9.35352 3.63843H10.6458" stroke="#6C0FBC" stroke-width="1.5" stroke-miterlimit="10" stroke-linecap="round" stroke-linejoin="round"/>
<path id="Vector_3" d="M9.99968 17.6384C10.3905 17.6384 10.7074 17.3216 10.7074 16.9307C10.7074 16.5399 10.3905 16.223 9.99968 16.223C9.60884 16.223 9.29199 16.5399 9.29199 16.9307C9.29199 17.3216 9.60884 17.6384 9.99968 17.6384Z" stroke="#6C0FBC" stroke-width="1.5" stroke-miterlimit="10" stroke-linecap="round" stroke-linejoin="round"/>
</g>
</svg>
