<svg width="20" height="21" viewBox="0 0 20 21" fill="none" xmlns="http://www.w3.org/2000/svg">
<g id="magicpen">
<path id="Vector" d="M2.91621 17.5833C3.60788 18.275 4.72454 18.275 5.41621 17.5833L16.2495 6.74995C16.9412 6.05828 16.9412 4.94162 16.2495 4.24995C15.5579 3.55828 14.4412 3.55828 13.7495 4.24995L2.91621 15.0833C2.22454 15.775 2.22454 16.8916 2.91621 17.5833Z" stroke="#6C0FBC" stroke-width="1.5" stroke-linecap="round" stroke-linejoin="round"/>
<path id="Vector_2" opacity="0.4" d="M15.0088 7.9917L12.5088 5.4917" stroke="#6C0FBC" stroke-width="1.5" stroke-linecap="round" stroke-linejoin="round"/>
<path id="Vector_3" opacity="0.4" d="M7.08301 2.53329L8.33301 2.16663L7.96634 3.41663L8.33301 4.66663L7.08301 4.29996L5.83301 4.66663L6.19967 3.41663L5.83301 2.16663L7.08301 2.53329Z" stroke="#6C0FBC" stroke-linecap="round" stroke-linejoin="round"/>
<path id="Vector_4" opacity="0.4" d="M3.75 7.53329L5 7.16663L4.63333 8.41663L5 9.66663L3.75 9.29996L2.5 9.66663L2.86667 8.41663L2.5 7.16663L3.75 7.53329Z" stroke="#6C0FBC" stroke-linecap="round" stroke-linejoin="round"/>
<path id="Vector_5" opacity="0.4" d="M16.25 11.7L17.5 11.3334L17.1333 12.5834L17.5 13.8334L16.25 13.4667L15 13.8334L15.3667 12.5834L15 11.3334L16.25 11.7Z" stroke="#6C0FBC" stroke-linecap="round" stroke-linejoin="round"/>
</g>
</svg>
