<svg width="18" height="18" viewBox="0 0 18 18" fill="none" xmlns="http://www.w3.org/2000/svg">
<g id="computer">
<path id="Subtract" fill-rule="evenodd" clip-rule="evenodd" d="M8.375 13.5V16.2083H6.5C6.15482 16.2083 5.875 16.4882 5.875 16.8333C5.875 17.1785 6.15482 17.4583 6.5 17.4583H11.5C11.8452 17.4583 12.125 17.1785 12.125 16.8333C12.125 16.4882 11.8452 16.2083 11.5 16.2083H9.625V13.5H8.375Z" fill="#6C0FBC"/>
<path id="Rectangle 961" opacity="0.4" d="M0.666992 2.66663C0.666992 1.28591 1.78628 0.166626 3.16699 0.166626H14.8337C16.2144 0.166626 17.3337 1.28591 17.3337 2.66663V11C17.3337 12.3807 16.2144 13.5 14.8337 13.5H3.16699C1.78628 13.5 0.666992 12.3807 0.666992 11V2.66663Z" fill="#6C0FBC"/>
<path id="Vector 2979 (Stroke)" fill-rule="evenodd" clip-rule="evenodd" d="M7.54199 11C7.54199 10.6548 7.82181 10.375 8.16699 10.375H9.83366C10.1788 10.375 10.4587 10.6548 10.4587 11C10.4587 11.3452 10.1788 11.625 9.83366 11.625H8.16699C7.82181 11.625 7.54199 11.3452 7.54199 11Z" fill="#6C0FBC"/>
</g>
</svg>
