<svg display="none" xmlns="http://www.w3.org/2000/svg">		
	<symbol id="add" viewBox="0 0 20 20">
		<path id="Vector" d="M5 10H15" stroke-width="2" stroke-linecap="round" stroke-linejoin="round"/>
		<path id="Vector_2" d="M10 15V5" stroke-width="2" stroke-linecap="round" stroke-linejoin="round"/>
	</symbol>
	<symbol id="check" viewBox="0 0 20 20">
		<path id="Vector 784" d="M4.1665 10.8334L7.10519 13.1843C7.79462 13.7359 8.79454 13.6541 9.38517 12.9978L15.8332 5.83337" stroke-width="2" stroke-linecap="round" stroke-linejoin="round"/>
	</symbol>
	<symbol id="menuIcon1" viewBox="0 0 20 20">
		<path d="M18.5062 4.19102C17.7593 2.94622 16.4315 2.11633 14.9377 2.11633H4.97926C3.48547 2.11633 2.1577 2.94622 1.41078 4.19102C0.49793 5.85079 0 7.67653 0 9.58524C0 14.1495 1.82574 17.884 4.14937 17.884C5.39418 17.884 6.39004 16.7222 7.13691 14.3155C7.21988 13.9836 7.55184 13.7346 7.9668 13.7346H12.0332C12.3652 13.7346 12.6971 13.9836 12.8631 14.3155C13.61 16.7222 14.6058 17.884 15.8506 17.884C18.1743 17.884 20 14.1495 20 9.58524C19.917 7.67653 19.4191 5.85079 18.5062 4.19102ZM15.7676 16.2242C15.5187 16.2242 14.9377 15.5603 14.3568 13.8176C14.0249 12.7388 13.029 12.0749 11.9502 12.0749H7.9668C6.88797 12.0749 5.89211 12.8217 5.56016 13.8176C4.97926 15.5603 4.39832 16.2242 4.14937 16.2242C3.31949 16.2242 1.65977 13.6516 1.65977 9.58524C1.65977 8.00848 2.07469 6.43172 2.8216 5.02094C3.31953 4.27407 4.14941 3.77614 4.9793 3.77614H14.9378C15.7677 3.77614 16.5976 4.27407 17.0955 5.02094C17.8424 6.43172 18.2573 8.00848 18.2573 9.58524C18.2573 13.6516 16.5975 16.2242 15.7676 16.2242Z" fill-opacity="0.9"/>
		<path d="M7.49962 7.50001H6.66629V6.66669C6.66629 6.16669 6.33297 5.83337 5.83297 5.83337C5.33297 5.83337 4.99965 6.16669 4.99965 6.66669V7.50001H4.16633C3.66633 7.50001 3.33301 7.83333 3.33301 8.33333C3.33301 8.83333 3.66633 9.16665 4.16633 9.16665H4.99961V10C4.99961 10.5 5.33293 10.8333 5.83293 10.8333C6.33293 10.8333 6.66625 10.5 6.66625 10V9.16669H7.49962C7.99962 9.16669 8.33294 8.83337 8.33294 8.33337C8.33294 7.83333 7.99962 7.50001 7.49962 7.50001Z" fill-opacity="0.9"/>
		<path d="M15.417 8.33325C16.1073 8.33325 16.667 7.77361 16.667 7.08325C16.667 6.3929 16.1073 5.83325 15.417 5.83325C14.7266 5.83325 14.167 6.3929 14.167 7.08325C14.167 7.77361 14.7266 8.33325 15.417 8.33325Z" fill-opacity="0.9"/>
		<path d="M12.917 10.8333C13.6073 10.8333 14.167 10.2736 14.167 9.58326C14.167 8.8929 13.6073 8.33325 12.917 8.33325C12.2266 8.33325 11.667 8.8929 11.667 9.58326C11.667 10.2736 12.2266 10.8333 12.917 10.8333Z" fill-opacity="0.9"/>
	</symbol>
	<symbol id="menuIcon2" viewBox="0 0 20 20">
		<path d="M1.66699 3.33329C1.66699 2.41282 2.41318 1.66663 3.33366 1.66663H6.66699C7.58747 1.66663 8.33366 2.41282 8.33366 3.33329V6.66663C8.33366 7.5871 7.58747 8.33329 6.66699 8.33329H3.33366C2.41318 8.33329 1.66699 7.5871 1.66699 6.66663V3.33329Z" stroke-opacity="0.9" stroke-width="1.5" stroke-linejoin="round"/>
		<path d="M11.667 3.33329C11.667 2.41282 12.4132 1.66663 13.3337 1.66663H16.667C17.5875 1.66663 18.3337 2.41282 18.3337 3.33329V6.66663C18.3337 7.5871 17.5875 8.33329 16.667 8.33329H13.3337C12.4132 8.33329 11.667 7.5871 11.667 6.66663V3.33329Z" stroke-opacity="0.9" stroke-width="1.5" stroke-linejoin="round"/>
		<path d="M1.66699 13.3333C1.66699 12.4128 2.41318 11.6666 3.33366 11.6666H6.66699C7.58747 11.6666 8.33366 12.4128 8.33366 13.3333V16.6666C8.33366 17.5871 7.58747 18.3333 6.66699 18.3333H3.33366C2.41318 18.3333 1.66699 17.5871 1.66699 16.6666V13.3333Z" stroke-opacity="0.9" stroke-width="1.5" stroke-linejoin="round"/>
		<path d="M11.667 13.3333C11.667 12.4128 12.4132 11.6666 13.3337 11.6666H16.667C17.5875 11.6666 18.3337 12.4128 18.3337 13.3333V16.6666C18.3337 17.5871 17.5875 18.3333 16.667 18.3333H13.3337C12.4132 18.3333 11.667 17.5871 11.667 16.6666V13.3333Z" stroke-opacity="0.9" stroke-width="1.5" stroke-linejoin="round"/>
	</symbol>
	<symbol id="logout" viewBox="0 0 20 20">
		<path id="Vector 350" d="M14.9993 7.16663L18.3327 10.4999M18.3327 10.4999L14.9993 13.8333M18.3327 10.4999L6.66602 10.4999" stroke-opacity="0.9" stroke-width="1.5" stroke-linecap="round" stroke-linejoin="round"/>
		<path id="Ellipse 120" d="M12.5 15.7045C11.3587 16.6194 9.90991 17.1667 8.33334 17.1667C4.65144 17.1667 1.66667 14.1819 1.66667 10.5C1.66667 6.81814 4.65144 3.83337 8.33334 3.83337C9.90991 3.83337 11.3587 4.38064 12.5 5.29556" stroke-opacity="0.9" stroke-width="1.5" stroke-linecap="round"/>
	</symbol>
	<symbol id="search" viewBox="0 0 24 24">
		<path id="Vector" d="M18.5 18.5L22 22M21 11.5C21 6.25329 16.7467 2 11.5 2C6.25329 2 2 6.25329 2 11.5C2 16.7467 6.25329 21 11.5 21C16.7467 21 21 16.7467 21 11.5Z" stroke-width="1.5" stroke-linecap="round" stroke-linejoin="round"/>
	</symbol>
</svg>