<svg width="20" height="21" viewBox="0 0 20 21" fill="none" xmlns="http://www.w3.org/2000/svg">
<g id="icon/mouse" clip-path="url(#clip0_315_5)">
<path id="Vector" opacity="0.4" d="M10.833 3V1.33333C10.833 1.11232 10.7452 0.900358 10.5889 0.744078C10.4326 0.587797 10.2207 0.5 9.99967 0.5C9.77866 0.5 9.5667 0.587797 9.41042 0.744078C9.25414 0.900358 9.16634 1.11232 9.16634 1.33333V3C7.61979 3.00176 6.13708 3.61691 5.0435 4.71049C3.94992 5.80407 3.33477 7.28678 3.33301 8.83333V13.8333C3.33301 15.6014 4.03539 17.2971 5.28563 18.5474C6.53587 19.7976 8.23156 20.5 9.99967 20.5C11.7678 20.5 13.4635 19.7976 14.7137 18.5474C15.964 17.2971 16.6663 15.6014 16.6663 13.8333V8.83333C16.6646 7.28678 16.0494 5.80407 14.9558 4.71049C13.8623 3.61691 12.3796 3.00176 10.833 3Z" fill="#6C0FBC"/>
<path id="Vector_2" d="M10.0003 6.33362C9.77932 6.33362 9.56735 6.42142 9.41107 6.5777C9.25479 6.73398 9.16699 6.94594 9.16699 7.16695V8.83361C9.16699 9.05463 9.25479 9.26659 9.41107 9.42287C9.56735 9.57915 9.77932 9.66695 10.0003 9.66695C10.2213 9.66695 10.4333 9.57915 10.5896 9.42287C10.7459 9.26659 10.8337 9.05463 10.8337 8.83361V7.16695C10.8337 6.94594 10.7459 6.73398 10.5896 6.5777C10.4333 6.42142 10.2213 6.33362 10.0003 6.33362Z" fill="#6C0FBC"/>
</g>
<defs>
<clipPath id="clip0_315_5">
<rect width="20" height="20" fill="white" transform="translate(0 0.5)"/>
</clipPath>
</defs>
</svg>
