<svg width="20" height="21" viewBox="0 0 20 21" fill="none" xmlns="http://www.w3.org/2000/svg">
<path opacity="0.4" d="M8.361 3.22614C9.03157 1.81346 10.9691 1.81346 11.6396 3.22613L12.7986 5.66761C13.0649 6.22858 13.5796 6.61741 14.175 6.70736L16.7664 7.09887C18.2659 7.3254 18.8646 9.24125 17.7796 10.3409L15.9044 12.2413C15.4736 12.6779 15.277 13.3071 15.3787 13.9236L15.8213 16.6071C16.0775 18.1598 14.51 19.3438 13.1689 18.6107L10.851 17.3438C10.3184 17.0527 9.68221 17.0527 9.14964 17.3438L6.8318 18.6107C5.49065 19.3438 3.92318 18.1598 4.17931 16.6071L4.62198 13.9236C4.72369 13.3071 4.52709 12.6779 4.09623 12.2413L2.22105 10.3409C1.13605 9.24125 1.73477 7.3254 3.23421 7.09887L5.82564 6.70736C6.42107 6.61741 6.9358 6.22858 7.20208 5.66761L8.361 3.22614Z" fill="#6C0FBC"/>
</svg>
