<svg width="24" height="24" viewBox="0 0 24 24" fill="none" xmlns="http://www.w3.org/2000/svg">
<path d="M10.8426 5.72072C10.7796 5.69854 10.698 5.66186 10.598 5.61068C10.0152 5.31281 9.36041 5.15672 8.69589 5.14238C6.3996 5.09274 4.44715 6.7612 4.13467 9.02847C4.06889 9.50393 4.04165 10.6202 4.38856 11.0347C5.21806 12.0252 6.04533 13.0173 6.87037 14.0108C6.98584 14.15 7.05351 14.2678 7.07338 14.364C7.13814 14.6726 6.91252 14.8456 6.62265 14.8671C6.01895 14.9114 5.41421 14.959 4.80845 15.0099C4.80468 15.0101 4.80101 15.0111 4.79765 15.0128C4.79428 15.0145 4.79128 15.0169 4.78884 15.0197C4.7864 15.0226 4.78456 15.0259 4.78342 15.0295C4.78229 15.0331 4.78188 15.0368 4.78224 15.0406C4.79389 15.1665 4.8189 15.2905 4.85727 15.4126C5.42877 17.2203 6.99166 18.5259 8.91637 18.6262C9.81216 18.6733 10.6689 18.4752 11.4367 18.0213C11.5145 17.9752 11.5966 17.9363 11.6829 17.9046C11.6997 17.8985 11.7168 17.8978 11.7343 17.9025C12.3927 18.0929 13.0623 18.1779 13.7453 18.0684C16.278 17.6625 18.0249 15.3461 17.5341 12.7922C17.4807 12.5138 17.3744 12.1724 17.2155 11.7681C17.1481 11.5972 17.4735 10.8525 17.4884 10.7937C18.3996 7.16757 14.9557 4.11572 11.4655 5.46482C11.3026 5.52777 11.0924 5.6506 10.8935 5.72072C10.8767 5.72686 10.8597 5.72686 10.8426 5.72072Z" stroke="#808080" stroke-width="2"/>
<path d="M12.1275 9.38058C12.2385 9.82227 12.515 10.4108 13.0556 10.4334C13.4288 10.4487 13.7536 10.1365 13.8872 9.80538C14.1366 9.18747 14.1443 8.5571 13.9103 7.91428C13.7659 7.51764 13.4246 7.12253 12.9333 7.20647C12.8648 7.21807 12.8403 7.25713 12.8598 7.32367C13.0238 7.87897 12.7123 8.15022 12.204 8.18605C12.196 8.18652 12.1881 8.18873 12.1809 8.19253C12.1737 8.19632 12.1674 8.20162 12.1624 8.20805C12.0077 8.40561 12.0694 9.14874 12.1275 9.38058Z" stroke="#808080" stroke-width="2"/>
<path d="M8.03959 10.5147C8.20987 10.672 8.39952 10.7295 8.60852 10.6872C9.62921 10.4815 9.64051 8.68352 9.25814 8.0018C9.07877 7.68295 8.75911 7.34005 8.34487 7.43678C8.28731 7.45008 8.26624 7.49017 8.28165 7.55705C8.3978 8.07397 8.15985 8.38156 7.64231 8.42967C7.54672 8.43837 7.52873 8.4788 7.51588 8.56324C7.40847 9.28949 7.47991 9.99935 8.03959 10.5147Z" stroke="#808080" stroke-width="2"/>
<path d="M9.84968 11.6729C9.70732 12.4964 10.6319 12.8286 11.2851 12.5901C11.7703 12.4135 12.0123 11.9534 11.7924 11.4493C11.743 11.3353 11.6493 11.2601 11.5112 11.2236C11.5034 11.2215 11.4951 11.2215 11.4872 11.2235C11.4793 11.2254 11.472 11.2294 11.466 11.2348C11.1633 11.5168 10.8457 11.7001 10.4453 11.4472C10.3717 11.4005 10.2965 11.3568 10.2197 11.3162C10.0213 11.2118 9.87486 11.5276 9.84968 11.6729Z" stroke="#808080" stroke-width="2"/>
<path d="M21.2447 11.4186C21.7847 11.4216 22.3293 11.422 22.8786 11.4196C23.5436 11.4165 23.6217 11.8039 23.2794 12.2891C22.6024 13.2503 21.9223 14.2094 21.2391 15.1665C21.1687 15.2642 21.0844 15.4019 21.0597 15.5186C20.2271 19.4963 16.8202 22.196 12.7447 22.194C11.5246 22.1933 10.3043 22.1931 9.08391 22.1935C8.64912 22.1935 8.307 22.1808 8.05757 22.1556C4.00824 21.7405 0.862421 18.5459 0.541208 14.5001C0.523734 14.2821 0.514997 13.941 0.514997 13.477C0.514655 12.4285 0.513456 11.38 0.5114 10.3315C0.510372 9.88078 0.51928 9.53992 0.538125 9.30893C0.888118 4.96377 4.33716 1.7379 8.69486 1.57003C8.73392 1.56867 9.07637 1.56423 9.72222 1.55672C11.3658 1.5383 12.5148 1.54598 13.1692 1.57976C17.3075 1.79266 20.5874 4.77082 21.1563 8.85241C21.2674 9.64825 21.2113 10.5526 21.2129 11.3868C21.2129 11.3952 21.2162 11.4033 21.2222 11.4093C21.2282 11.4152 21.2363 11.4186 21.2447 11.4186ZM10.8426 5.72072C10.7796 5.69854 10.698 5.66186 10.598 5.61068C10.0152 5.31281 9.36041 5.15671 8.69588 5.14238C6.3996 5.09274 4.44715 6.7612 4.13467 9.02847C4.06889 9.50393 4.04165 10.6202 4.38856 11.0347C5.21806 12.0252 6.04533 13.0173 6.87037 14.0108C6.98584 14.15 7.0535 14.2677 7.07338 14.364C7.13813 14.6726 6.91251 14.8456 6.62265 14.8671C6.01894 14.9114 5.41421 14.959 4.80845 15.0099C4.80468 15.0101 4.80101 15.0111 4.79764 15.0128C4.79428 15.0145 4.79128 15.0168 4.78884 15.0197C4.7864 15.0226 4.78456 15.0259 4.78342 15.0295C4.78229 15.033 4.78188 15.0368 4.78224 15.0406C4.79388 15.1665 4.8189 15.2905 4.85727 15.4126C5.42877 17.2203 6.99166 18.5259 8.91636 18.6262C9.81216 18.6733 10.6689 18.4752 11.4367 18.0213C11.5145 17.9752 11.5966 17.9363 11.6829 17.9046C11.6997 17.8984 11.7168 17.8978 11.7343 17.9025C12.3926 18.0929 13.0623 18.1779 13.7453 18.0684C16.278 17.6625 18.0249 15.3461 17.5341 12.7922C17.4806 12.5138 17.3744 12.1724 17.2155 11.7681C17.1481 11.5972 17.4735 10.8525 17.4884 10.7937C18.3996 7.16757 14.9557 4.11572 11.4655 5.46482C11.3026 5.52777 11.0924 5.6506 10.8935 5.72072C10.8767 5.72686 10.8597 5.72686 10.8426 5.72072Z" fill="black"/>
<path d="M10.8935 5.72072C11.0924 5.6506 11.3026 5.52777 11.4655 5.46482C14.9557 4.11572 18.3996 7.16758 17.4884 10.7937C17.4735 10.8525 17.1481 11.5972 17.2155 11.7681C17.3744 12.1725 17.4807 12.5138 17.5341 12.7922C18.0249 15.3461 16.278 17.6625 13.7453 18.0684C13.0623 18.1779 12.3927 18.0929 11.7343 17.9025C11.7168 17.8978 11.6997 17.8985 11.6829 17.9046C11.5966 17.9363 11.5145 17.9752 11.4367 18.0213C10.6689 18.4753 9.81217 18.6733 8.91637 18.6262C6.99166 18.5259 5.42877 17.2203 4.85727 15.4126C4.8189 15.2905 4.79389 15.1665 4.78224 15.0406C4.78189 15.0368 4.78229 15.0331 4.78342 15.0295C4.78456 15.0259 4.7864 15.0226 4.78884 15.0197C4.79129 15.0169 4.79428 15.0145 4.79765 15.0128C4.80101 15.0111 4.80469 15.0101 4.80845 15.0099C5.41421 14.959 6.01895 14.9114 6.62266 14.8671C6.91252 14.8456 7.13814 14.6726 7.07338 14.364C7.05351 14.2678 6.98584 14.15 6.87038 14.0108C6.04533 13.0173 5.21806 12.0252 4.38856 11.0347C4.04165 10.6202 4.06889 9.50394 4.13467 9.02847C4.44715 6.76121 6.39961 5.09274 8.69589 5.14239C9.36041 5.15672 10.0152 5.31282 10.598 5.61068C10.698 5.66186 10.7796 5.69854 10.8426 5.72072C10.8597 5.72686 10.8767 5.72686 10.8935 5.72072ZM12.1275 9.38059C12.2385 9.82227 12.515 10.4108 13.0556 10.4334C13.4288 10.4487 13.7536 10.1365 13.8872 9.80539C14.1366 9.18747 14.1443 8.55711 13.9103 7.91429C13.7659 7.51765 13.4246 7.12254 12.9333 7.20647C12.8648 7.21807 12.8403 7.25714 12.8598 7.32367C13.0238 7.87898 12.7123 8.15023 12.204 8.18605C12.196 8.18653 12.1881 8.18874 12.1809 8.19253C12.1737 8.19633 12.1674 8.20162 12.1624 8.20806C12.0077 8.40562 12.0694 9.14875 12.1275 9.38059ZM8.03959 10.5147C8.20987 10.672 8.39952 10.7295 8.60852 10.6872C9.6292 10.4815 9.64051 8.68352 9.25814 8.00181C9.07877 7.68296 8.7591 7.34005 8.34487 7.43678C8.28731 7.45009 8.26623 7.49018 8.28165 7.55705C8.3978 8.07397 8.15985 8.38156 7.64231 8.42967C7.54672 8.43837 7.52873 8.4788 7.51588 8.56325C7.40847 9.28949 7.47991 9.99936 8.03959 10.5147ZM9.84968 11.6729C9.70732 12.4964 10.6319 12.8286 11.2851 12.5901C11.7703 12.4135 12.0123 11.9534 11.7924 11.4493C11.743 11.3353 11.6493 11.2601 11.5112 11.2236C11.5034 11.2216 11.4951 11.2215 11.4872 11.2235C11.4793 11.2255 11.472 11.2294 11.466 11.2348C11.1633 11.5168 10.8457 11.7001 10.4453 11.4472C10.3717 11.4005 10.2965 11.3568 10.2197 11.3162C10.0213 11.2118 9.87487 11.5276 9.84968 11.6729Z" fill="white"/>
<path d="M13.0556 10.4334C12.515 10.4108 12.2385 9.82227 12.1275 9.38059C12.0694 9.14874 12.0077 8.40561 12.1624 8.20806C12.1674 8.20162 12.1737 8.19632 12.1809 8.19253C12.1881 8.18873 12.196 8.18652 12.204 8.18605C12.7123 8.15022 13.0238 7.87897 12.8598 7.32367C12.8403 7.25714 12.8648 7.21807 12.9333 7.20647C13.4246 7.12253 13.7659 7.51764 13.9103 7.91428C14.1443 8.5571 14.1366 9.18747 13.8872 9.80538C13.7536 10.1365 13.4288 10.4487 13.0556 10.4334Z" fill="black"/>
<path d="M8.03959 10.5147C7.47991 9.99935 7.40847 9.28949 7.51588 8.56325C7.52873 8.4788 7.54672 8.43837 7.64231 8.42967C8.15985 8.38156 8.3978 8.07397 8.28165 7.55705C8.26623 7.49018 8.2873 7.45009 8.34487 7.43678C8.7591 7.34005 9.07877 7.68296 9.25814 8.00181C9.64051 8.68352 9.6292 10.4815 8.60852 10.6872C8.39951 10.7295 8.20987 10.672 8.03959 10.5147Z" fill="black"/>
<path d="M11.2851 12.5901C10.6319 12.8286 9.70732 12.4964 9.84968 11.6729C9.87487 11.5276 10.0213 11.2118 10.2197 11.3162C10.2965 11.3568 10.3717 11.4005 10.4453 11.4472C10.8457 11.7001 11.1633 11.5168 11.466 11.2348C11.472 11.2294 11.4793 11.2255 11.4872 11.2235C11.4951 11.2215 11.5034 11.2216 11.5112 11.2236C11.6493 11.2601 11.743 11.3353 11.7924 11.4493C12.0123 11.9534 11.7703 12.4135 11.2851 12.5901Z" fill="black"/>
</svg>
