<svg width="50" height="50" viewBox="0 0 50 50" fill="none" xmlns="http://www.w3.org/2000/svg">
<path d="M25 17.2414V5.17241C35.8775 5.17241 44.8275 14.1224 44.8275 25C44.8275 35.8776 35.8775 44.8276 25 44.8276C14.1224 44.8276 5.17236 35.8776 5.17236 25C5.17236 19.7431 7.26202 14.6965 10.9793 10.9793" stroke="#6C0FBC" stroke-width="2" stroke-miterlimit="10"/>
<path d="M15.1603 17.5983C14.837 17.275 14.6554 16.8365 14.6554 16.3793C14.6554 15.9221 14.837 15.4836 15.1603 15.1603C15.4836 14.837 15.9221 14.6554 16.3793 14.6554C16.8365 14.6554 17.2749 14.837 17.5982 15.1603L27.4379 22.5621C27.7672 22.8802 28.0299 23.2607 28.2107 23.6814C28.3914 24.1021 28.4865 24.5545 28.4905 25.0124C28.4945 25.4703 28.4072 25.9243 28.2338 26.3481C28.0604 26.7719 27.8044 27.1569 27.4806 27.4807C27.1569 27.8044 26.7719 28.0605 26.3481 28.2339C25.9243 28.4072 25.4702 28.4945 25.0124 28.4905C24.5545 28.4865 24.102 28.3914 23.6813 28.2107C23.2606 28.03 22.8801 27.7673 22.562 27.4379L15.1603 17.5983Z" fill="#6C0FBC"/>
</svg>
