<svg width="60" height="48" viewBox="0 0 60 48" fill="none" xmlns="http://www.w3.org/2000/svg">
<path d="M34.6964 26.3929C34.7678 25.8215 34.8214 25.25 34.8214 24.6429C34.8214 24.0357 34.7678 23.4643 34.6964 22.8929L38.4642 19.9465C38.8035 19.6786 38.8928 19.1965 38.6785 18.8036L35.1071 12.625C34.8928 12.2322 34.4106 12.0893 34.0178 12.2322L29.5714 14.0179C28.6428 13.3036 27.6428 12.7143 26.5535 12.2679L25.8749 7.53574C25.8214 7.10716 25.4464 6.78574 24.9999 6.78574H17.8571C17.4106 6.78574 17.0356 7.10716 16.9821 7.53574L16.3035 12.2679C15.2142 12.7143 14.2142 13.3215 13.2856 14.0179L8.83921 12.2322C8.42849 12.0715 7.96421 12.2322 7.74992 12.625L4.17849 18.8036C3.94635 19.1965 4.05349 19.6786 4.39278 19.9465L8.16064 22.8929C8.08921 23.4643 8.03564 24.0536 8.03564 24.6429C8.03564 25.2322 8.08921 25.8215 8.16064 26.3929L4.39278 29.3393C4.05349 29.6072 3.96421 30.0893 4.17849 30.4822L7.74992 36.6607C7.96421 37.0536 8.44635 37.1965 8.83921 37.0536L13.2856 35.2679C14.2142 35.9822 15.2142 36.5715 16.3035 37.0179L16.9821 41.75C17.0356 42.1786 17.4106 42.5 17.8571 42.5H24.9999C25.4464 42.5 25.8214 42.1786 25.8749 41.75L26.5535 37.0179C27.6428 36.5715 28.6428 35.9643 29.5714 35.2679L34.0178 37.0536C34.4285 37.2143 34.8928 37.0536 35.1071 36.6607L38.6785 30.4822C38.8928 30.0893 38.8035 29.6072 38.4642 29.3393L34.6964 26.3929ZM21.4285 30.8929C17.9821 30.8929 15.1785 28.0893 15.1785 24.6429C15.1785 21.1965 17.9821 18.3929 21.4285 18.3929C24.8749 18.3929 27.6785 21.1965 27.6785 24.6429C27.6785 28.0893 24.8749 30.8929 21.4285 30.8929Z" fill="#6C0FBC"/>
<g clip-path="url(#clip0_5_22)">
<path d="M55.9197 11.5893C55.9554 11.3036 55.9822 11.0178 55.9822 10.7143C55.9822 10.4107 55.9554 10.125 55.9197 9.83928L57.8036 8.36606C57.9733 8.23213 58.0179 7.99106 57.9108 7.79463L56.1251 4.70535C56.0179 4.50892 55.7769 4.43749 55.5804 4.50892L53.3572 5.40178C52.8929 5.04463 52.3929 4.74999 51.8483 4.52678L51.509 2.16071C51.4822 1.94642 51.2947 1.78571 51.0715 1.78571H47.5001C47.2769 1.78571 47.0894 1.94642 47.0626 2.16071L46.7233 4.52678C46.1786 4.74999 45.6786 5.05356 45.2144 5.40178L42.9911 4.50892C42.7858 4.42856 42.5536 4.50892 42.4465 4.70535L40.6608 7.79463C40.5447 7.99106 40.5983 8.23213 40.7679 8.36606L42.6519 9.83928C42.6161 10.125 42.5894 10.4196 42.5894 10.7143C42.5894 11.0089 42.6161 11.3036 42.6519 11.5893L40.7679 13.0625C40.5983 13.1964 40.5536 13.4375 40.6608 13.6339L42.4465 16.7232C42.5536 16.9196 42.7947 16.9911 42.9911 16.9196L45.2144 16.0268C45.6786 16.3839 46.1786 16.6786 46.7233 16.9018L47.0626 19.2678C47.0894 19.4821 47.2769 19.6428 47.5001 19.6428H51.0715C51.2947 19.6428 51.4822 19.4821 51.509 19.2678L51.8483 16.9018C52.3929 16.6786 52.8929 16.375 53.3572 16.0268L55.5804 16.9196C55.7858 17 56.0179 16.9196 56.1251 16.7232L57.9108 13.6339C58.0179 13.4375 57.9733 13.1964 57.8036 13.0625L55.9197 11.5893ZM49.2858 13.8393C47.5626 13.8393 46.1608 12.4375 46.1608 10.7143C46.1608 8.99106 47.5626 7.58928 49.2858 7.58928C51.009 7.58928 52.4108 8.99106 52.4108 10.7143C52.4108 12.4375 51.009 13.8393 49.2858 13.8393Z" fill="#6C0FBC"/>
</g>
<g clip-path="url(#clip1_5_22)">
<path d="M55.9197 37.3036C55.9554 37.0179 55.9822 36.7321 55.9822 36.4286C55.9822 36.125 55.9554 35.8393 55.9197 35.5536L57.8036 34.0804C57.9733 33.9464 58.0179 33.7054 57.9108 33.5089L56.1251 30.4196C56.0179 30.2232 55.7769 30.1518 55.5804 30.2232L53.3572 31.1161C52.8929 30.7589 52.3929 30.4643 51.8483 30.2411L51.509 27.875C51.4822 27.6607 51.2947 27.5 51.0715 27.5H47.5001C47.2769 27.5 47.0894 27.6607 47.0626 27.875L46.7233 30.2411C46.1786 30.4643 45.6786 30.7679 45.2144 31.1161L42.9911 30.2232C42.7858 30.1429 42.5536 30.2232 42.4465 30.4196L40.6608 33.5089C40.5447 33.7054 40.5983 33.9464 40.7679 34.0804L42.6519 35.5536C42.6161 35.8393 42.5894 36.1339 42.5894 36.4286C42.5894 36.7232 42.6161 37.0179 42.6519 37.3036L40.7679 38.7768C40.5983 38.9107 40.5536 39.1518 40.6608 39.3482L42.4465 42.4375C42.5536 42.6339 42.7947 42.7054 42.9911 42.6339L45.2144 41.7411C45.6786 42.0982 46.1786 42.3929 46.7233 42.6161L47.0626 44.9821C47.0894 45.1964 47.2769 45.3571 47.5001 45.3571H51.0715C51.2947 45.3571 51.4822 45.1964 51.509 44.9821L51.8483 42.6161C52.3929 42.3929 52.8929 42.0893 53.3572 41.7411L55.5804 42.6339C55.7858 42.7143 56.0179 42.6339 56.1251 42.4375L57.9108 39.3482C58.0179 39.1518 57.9733 38.9107 57.8036 38.7768L55.9197 37.3036ZM49.2858 39.5536C47.5626 39.5536 46.1608 38.1518 46.1608 36.4286C46.1608 34.7054 47.5626 33.3036 49.2858 33.3036C51.009 33.3036 52.4108 34.7054 52.4108 36.4286C52.4108 38.1518 51.009 39.5536 49.2858 39.5536Z" fill="#6C0FBC"/>
</g>
<defs>
<clipPath id="clip0_5_22">
<rect width="21.4286" height="21.4286" fill="white" transform="translate(38.5715)"/>
</clipPath>
<clipPath id="clip1_5_22">
<rect width="21.4286" height="21.4286" fill="white" transform="translate(38.5715 25.7143)"/>
</clipPath>
</defs>
</svg>
