<svg width="20" height="21" viewBox="0 0 20 21" fill="none" xmlns="http://www.w3.org/2000/svg">
<g id="icon/keyboard" clip-path="url(#clip0_315_207)">
<path id="Vector" opacity="0.4" d="M15.8333 5.49972H10.8333V2.99972C10.8333 2.7787 10.7455 2.56674 10.5893 2.41046C10.433 2.25418 10.221 2.16638 10 2.16638C9.77899 2.16638 9.56702 2.25418 9.41074 2.41046C9.25446 2.56674 9.16667 2.7787 9.16667 2.99972V5.49972H4.16667C3.062 5.50104 2.00296 5.94045 1.22185 6.72156C0.440735 7.50268 0.00132321 8.56172 0 9.66638L0 12.9997C0.00132321 14.1044 0.440735 15.1634 1.22185 15.9445C2.00296 16.7256 3.062 17.1651 4.16667 17.1664H15.8333C16.938 17.1651 17.997 16.7256 18.7782 15.9445C19.5593 15.1634 19.9987 14.1044 20 12.9997V9.66638C19.9987 8.56172 19.5593 7.50268 18.7782 6.72156C17.997 5.94045 16.938 5.50104 15.8333 5.49972Z" fill="#6C0FBC"/>
<path id="Vector_2" d="M12.5003 12.1664H7.50032C7.27931 12.1664 7.06735 12.2542 6.91107 12.4105C6.75479 12.5667 6.66699 12.7787 6.66699 12.9997C6.66699 13.2207 6.75479 13.4327 6.91107 13.589C7.06735 13.7453 7.27931 13.8331 7.50032 13.8331H12.5003C12.7213 13.8331 12.9333 13.7453 13.0896 13.589C13.2458 13.4327 13.3336 13.2207 13.3336 12.9997C13.3336 12.7787 13.2458 12.5667 13.0896 12.4105C12.9333 12.2542 12.7213 12.1664 12.5003 12.1664Z" fill="#6C0FBC"/>
<path id="Vector_3" d="M8.33333 10.5003H9.16667C9.38768 10.5003 9.59964 10.4125 9.75592 10.2562C9.9122 10.0999 10 9.88796 10 9.66695C10 9.44594 9.9122 9.23398 9.75592 9.0777C9.59964 8.92142 9.38768 8.83362 9.16667 8.83362H8.33333C8.11232 8.83362 7.90036 8.92142 7.74408 9.0777C7.5878 9.23398 7.5 9.44594 7.5 9.66695C7.5 9.88796 7.5878 10.0999 7.74408 10.2562C7.90036 10.4125 8.11232 10.5003 8.33333 10.5003Z" fill="#6C0FBC"/>
<path id="Vector_4" d="M15.8337 8.83362H12.5003C12.2793 8.83362 12.0674 8.92142 11.9111 9.0777C11.7548 9.23398 11.667 9.44594 11.667 9.66695C11.667 9.88796 11.7548 10.0999 11.9111 10.2562C12.0674 10.4125 12.2793 10.5003 12.5003 10.5003H15.8337C16.0547 10.5003 16.2666 10.4125 16.4229 10.2562C16.5792 10.0999 16.667 9.88796 16.667 9.66695C16.667 9.44594 16.5792 9.23398 16.4229 9.0777C16.2666 8.92142 16.0547 8.83362 15.8337 8.83362Z" fill="#6C0FBC"/>
<path id="Vector_5" d="M4.99967 8.83362H4.16634C3.94533 8.83362 3.73337 8.92142 3.57709 9.0777C3.42081 9.23398 3.33301 9.44594 3.33301 9.66695C3.33301 9.88796 3.42081 10.0999 3.57709 10.2562C3.73337 10.4125 3.94533 10.5003 4.16634 10.5003H4.99967C5.22069 10.5003 5.43265 10.4125 5.58893 10.2562C5.74521 10.0999 5.83301 9.88796 5.83301 9.66695C5.83301 9.44594 5.74521 9.23398 5.58893 9.0777C5.43265 8.92142 5.22069 8.83362 4.99967 8.83362Z" fill="#6C0FBC"/>
<path id="Vector_6" d="M4.16634 13.8331C4.62658 13.8331 4.99967 13.46 4.99967 12.9997C4.99967 12.5395 4.62658 12.1664 4.16634 12.1664C3.7061 12.1664 3.33301 12.5395 3.33301 12.9997C3.33301 13.46 3.7061 13.8331 4.16634 13.8331Z" fill="#6C0FBC"/>
<path id="Vector_7" d="M15.8333 13.8331C16.2936 13.8331 16.6667 13.46 16.6667 12.9997C16.6667 12.5395 16.2936 12.1664 15.8333 12.1664C15.3731 12.1664 15 12.5395 15 12.9997C15 13.46 15.3731 13.8331 15.8333 13.8331Z" fill="#6C0FBC"/>
</g>
<defs>
<clipPath id="clip0_315_207">
<rect width="20" height="20" fill="white" transform="translate(0 0.5)"/>
</clipPath>
</defs>
</svg>
