<svg width="27" height="24" viewBox="0 0 27 24" fill="none" xmlns="http://www.w3.org/2000/svg">
<g id="logo" clip-path="url(#clip0_259_3177)">
<g id="Group">
<path id="Vector" d="M12.1975 5.21233C12.1266 5.18784 12.0348 5.14734 11.9223 5.09083C11.2666 4.76193 10.53 4.58957 9.78244 4.57375C7.19913 4.51894 5.00262 6.3612 4.65108 8.86463C4.57707 9.38962 4.54643 10.6221 4.9367 11.0799C5.86989 12.1735 6.80057 13.2689 7.72874 14.366C7.85864 14.5197 7.93477 14.6497 7.95713 14.7559C8.02998 15.0967 7.77615 15.2877 7.45006 15.3114C6.77089 15.3604 6.09056 15.4129 5.40908 15.4691C5.40485 15.4694 5.40071 15.4705 5.39693 15.4723C5.39314 15.4742 5.38977 15.4768 5.38702 15.48C5.38427 15.4831 5.3822 15.4868 5.38093 15.4907C5.37965 15.4947 5.37919 15.4989 5.37959 15.503C5.3927 15.642 5.42083 15.779 5.46401 15.9138C6.10694 17.9098 7.86519 19.3514 10.0305 19.4622C11.0383 19.5141 12.0021 19.2954 12.8659 18.7942C12.9534 18.7433 13.0457 18.7004 13.1428 18.6653C13.1617 18.6586 13.181 18.6578 13.2007 18.6631C13.9413 18.8733 14.6947 18.9671 15.4631 18.8462C18.3124 18.398 20.2776 15.8404 19.7254 13.0205C19.6653 12.713 19.5458 12.3361 19.367 11.8897C19.2912 11.7009 19.6572 10.8787 19.674 10.8137C20.6991 6.80989 16.8247 3.44014 12.8983 4.92977C12.715 4.99928 12.4785 5.13491 12.2548 5.21233C12.2359 5.21911 12.2168 5.21911 12.1975 5.21233Z" stroke="#808080" stroke-width="2"/>
<path id="Vector_2" d="M13.6437 9.25348C13.7686 9.74117 14.0796 10.391 14.6879 10.4159C15.1076 10.4329 15.4731 10.0881 15.6234 9.72252C15.904 9.04025 15.9127 8.34422 15.6494 7.63444C15.4869 7.19648 15.103 6.76021 14.5503 6.85289C14.4732 6.8657 14.4456 6.90884 14.4676 6.9823C14.652 7.59545 14.3017 7.89495 13.7298 7.93451C13.7208 7.93504 13.7119 7.93748 13.7038 7.94167C13.6958 7.94586 13.6887 7.9517 13.683 7.95881C13.509 8.17695 13.5784 8.99749 13.6437 9.25348Z" stroke="#808080" stroke-width="2"/>
<path id="Vector_3" d="M9.04484 10.5058C9.23641 10.6795 9.44976 10.743 9.68489 10.6963C10.8332 10.4691 10.8459 8.48385 10.4157 7.73112C10.2139 7.37906 9.8543 7.00044 9.38828 7.10724C9.32353 7.12193 9.29982 7.1662 9.31716 7.24004C9.44783 7.8108 9.18014 8.15044 8.59791 8.20356C8.49036 8.21316 8.47013 8.25781 8.45567 8.35105C8.33483 9.15294 8.4152 9.93675 9.04484 10.5058Z" stroke="#808080" stroke-width="2"/>
<path id="Vector_4" d="M11.081 11.785C10.9208 12.6942 11.961 13.061 12.6958 12.7977C13.2416 12.6027 13.5139 12.0947 13.2665 11.538C13.211 11.4122 13.1056 11.3291 12.9502 11.2888C12.9414 11.2866 12.932 11.2865 12.9232 11.2887C12.9143 11.2909 12.9061 11.2952 12.8993 11.3012C12.5588 11.6126 12.2015 11.8149 11.7511 11.5358C11.6682 11.4842 11.5836 11.4359 11.4972 11.3911C11.2741 11.2758 11.1093 11.6245 11.081 11.785Z" stroke="#808080" stroke-width="2"/>
</g>
<path id="Vector_5" d="M25.7395 11.755L25.7394 11.755C25.1207 11.7577 24.5072 11.7573 23.8989 11.7539C23.8254 11.7535 23.7539 11.7249 23.7002 11.6724C23.7002 11.6724 23.7002 11.6724 23.7002 11.6724L23.875 11.4936C23.8682 11.4871 23.8645 11.4781 23.8645 11.4689L25.7395 11.755ZM25.7395 11.755C26.0908 11.7534 26.1484 11.8545 26.1557 11.8734C26.1634 11.8931 26.1708 11.9368 26.1468 12.0176C26.1229 12.0981 26.072 12.2001 25.9863 12.3192L25.9862 12.3194C25.225 13.3801 24.4602 14.4385 23.6921 15.4947M25.7395 11.755L23.6921 15.4947M23.6921 15.4947C23.6109 15.6054 23.4875 15.7939 23.4478 15.9783L23.4477 15.9788C22.5369 20.2494 18.8111 23.1539 14.3379 23.1517C12.9652 23.151 11.5924 23.1508 10.2194 23.1512L23.6921 15.4947ZM12.0348 4.86755L12.0349 4.8676C12.1131 4.9069 12.1769 4.93606 12.2273 4.95648C12.3088 4.92502 12.3946 4.88532 12.4848 4.84247C12.4977 4.83631 12.5109 4.83004 12.5242 4.8237C12.618 4.77892 12.7191 4.73068 12.81 4.69622C16.9162 3.13836 20.9944 6.66605 19.9166 10.8759L19.9164 10.8763C19.9098 10.9019 19.8958 10.9376 19.8872 10.9593L19.8858 10.9628C19.879 10.9801 19.8705 11.0012 19.8612 11.0245C19.8548 11.0406 19.8479 11.0577 19.841 11.0753C19.8058 11.1637 19.7622 11.2749 19.7218 11.389C19.6809 11.5044 19.6455 11.6163 19.6247 11.707C19.6143 11.7525 19.6091 11.7864 19.6075 11.8092C19.6073 11.8119 19.6072 11.8142 19.6072 11.8162C19.7849 12.2622 19.9078 12.6486 19.9712 12.9726C20.5531 15.9447 18.4781 18.6253 15.5023 19.0933C14.7061 19.2186 13.9318 19.125 13.1829 18.9178C13.1162 18.9443 13.0526 18.9752 12.9919 19.0105L12.9918 19.0106C12.0837 19.5375 11.0715 19.7663 10.0181 19.712C10.0181 19.712 10.018 19.712 10.018 19.712L10.0309 19.4623L12.0348 4.86755ZM12.0348 4.86755C11.3436 4.52083 10.5701 4.34055 9.78812 4.32399C7.08184 4.26657 4.77355 6.1976 4.4039 8.83006C4.36458 9.10908 4.33759 9.56629 4.37085 10.0161C4.38752 10.2415 4.41977 10.4716 4.47607 10.6799C4.53148 10.8849 4.61521 11.0879 4.74685 11.2423L4.74691 11.2423M12.0348 4.86755L4.74691 11.2423M4.74691 11.2423C5.67987 12.3357 6.61032 13.4308 7.53827 14.5276C7.66057 14.6724 7.70357 14.7634 7.71287 14.8076L7.71304 14.8084M4.74691 11.2423L7.71304 14.8084M7.71304 14.8084C7.73299 14.9017 7.7078 14.9455 7.6785 14.9743M7.71304 14.8084L7.6785 14.9743M5.19876 15.3161L5.19877 15.3161C5.22346 15.2877 5.25343 15.2647 5.28672 15.2483C5.28672 15.2483 5.28673 15.2483 5.28673 15.2483L5.19876 15.3161ZM5.19876 15.3161C5.17406 15.3445 5.15513 15.3778 5.1434 15.4141L5.19876 15.3161ZM7.6785 14.9743C7.63841 15.0136 7.55701 15.0532 7.43246 15.0623M7.6785 14.9743L7.43246 15.0623M7.43246 15.0623C6.75276 15.1113 6.07191 15.1639 5.3899 15.22C5.38958 15.2201 5.38926 15.2201 5.38894 15.2201L5.40946 15.4693M7.43246 15.0623L5.40946 15.4693M5.40946 15.4693C6.09095 15.4131 6.77127 15.3606 7.45045 15.3116L5.40946 15.4693ZM9.79062 0.879308C9.83269 0.877914 10.2129 0.873055 10.9402 0.864759L10.2193 23.1512C9.73358 23.1512 9.35829 23.1373 9.08976 23.1106C4.64986 22.6639 1.20928 19.2287 0.858006 14.8863L0.85799 14.8861C0.839211 14.6561 0.829332 14.2881 0.829332 13.7768L0.829332 13.7767C0.828947 12.6188 0.827598 11.461 0.825285 10.3031L0.825284 10.303C0.824132 9.80715 0.834198 9.43937 0.854492 9.19521L0.854513 9.19495C1.23733 4.53033 5.00785 1.06037 9.79062 0.879308ZM5.14339 15.4142C5.1317 15.4504 5.12749 15.4886 5.13108 15.5266C5.13109 15.5268 5.1311 15.5269 5.13111 15.527L5.37998 15.5032L5.14339 15.4142Z" fill="white" stroke="black" stroke-width="0.5"/>
<path id="Vector_6" d="M12.2548 5.21233C12.4785 5.13491 12.715 4.99928 12.8983 4.92977C16.8247 3.44014 20.6991 6.80989 19.674 10.8137C19.6572 10.8787 19.2912 11.7009 19.367 11.8897C19.5458 12.3361 19.6653 12.713 19.7254 13.0205C20.2776 15.8404 18.3124 18.3981 15.4631 18.8462C14.6947 18.9671 13.9413 18.8733 13.2007 18.6631C13.181 18.6578 13.1617 18.6586 13.1428 18.6653C13.0457 18.7004 12.9534 18.7433 12.8659 18.7942C12.0021 19.2954 11.0383 19.5141 10.0305 19.4622C7.86519 19.3514 6.10694 17.9098 5.46401 15.9138C5.42083 15.779 5.3927 15.642 5.37959 15.503C5.37919 15.4989 5.37965 15.4947 5.38093 15.4907C5.3822 15.4868 5.38427 15.4831 5.38702 15.48C5.38977 15.4768 5.39314 15.4742 5.39693 15.4723C5.40071 15.4705 5.40485 15.4694 5.40908 15.4691C6.09056 15.4129 6.77089 15.3604 7.45006 15.3114C7.77615 15.2877 8.02998 15.0967 7.95713 14.7559C7.93477 14.6497 7.85864 14.5197 7.72874 14.366C6.80057 13.2689 5.86989 12.1735 4.9367 11.0799C4.54643 10.6221 4.57707 9.38962 4.65108 8.86463C5.00262 6.3612 7.19913 4.51894 9.78244 4.57375C10.53 4.58957 11.2666 4.76193 11.9223 5.09083C12.0348 5.14734 12.1266 5.18784 12.1975 5.21233C12.2168 5.21911 12.2359 5.21911 12.2548 5.21233ZM13.643 9.25343C13.7679 9.74112 14.0789 10.391 14.6872 10.4159C15.1069 10.4328 15.4723 10.0881 15.6227 9.72247C15.9033 9.0402 15.9119 8.34417 15.6487 7.63439C15.4862 7.19643 15.1023 6.76016 14.5496 6.85284C14.4725 6.86565 14.4449 6.90879 14.4669 6.98225C14.6513 7.5954 14.3009 7.89491 13.7291 7.93446C13.72 7.93499 13.7112 7.93743 13.7031 7.94162C13.695 7.94581 13.6879 7.95165 13.6823 7.95876C13.5082 8.1769 13.5776 8.99744 13.643 9.25343ZM9.04411 10.5057C9.23568 10.6794 9.44903 10.7429 9.68415 10.6962C10.8324 10.469 10.8451 8.48375 10.415 7.73102C10.2132 7.37896 9.85356 7.00034 9.38755 7.10714C9.32279 7.12183 9.29908 7.1661 9.31643 7.23994C9.4471 7.8107 9.1794 8.15034 8.59717 8.20346C8.48963 8.21306 8.46939 8.25771 8.45494 8.35095C8.3341 9.15284 8.41447 9.93665 9.04411 10.5057ZM11.0805 11.7846C10.9203 12.6938 11.9605 13.0606 12.6953 12.7972C13.2411 12.6023 13.5135 12.0942 13.266 11.5376C13.2105 11.4118 13.1051 11.3287 12.9497 11.2884C12.9409 11.2862 12.9316 11.2861 12.9227 11.2883C12.9138 11.2905 12.9056 11.2948 12.8988 11.3008C12.5583 11.6122 12.201 11.8145 11.7506 11.5353C11.6677 11.4837 11.5831 11.4355 11.4968 11.3907C11.2736 11.2754 11.1088 11.6241 11.0805 11.7846Z" fill="white"/>
<path id="Vector_7" d="M14.6879 10.4159C14.0796 10.391 13.7686 9.74117 13.6437 9.25348C13.5784 8.99749 13.509 8.17695 13.683 7.95881C13.6887 7.9517 13.6958 7.94586 13.7038 7.94167C13.7119 7.93748 13.7208 7.93504 13.7298 7.93451C14.3017 7.89495 14.652 7.59545 14.4676 6.9823C14.4456 6.90884 14.4732 6.8657 14.5503 6.85289C15.103 6.76021 15.4869 7.19648 15.6494 7.63444C15.9127 8.34422 15.904 9.04025 15.6234 9.72252C15.4731 10.0881 15.1076 10.4329 14.6879 10.4159Z" fill="black"/>
<path id="Vector_8" d="M9.04484 10.5058C8.4152 9.93675 8.33483 9.15294 8.45567 8.35105C8.47013 8.25781 8.49036 8.21316 8.59791 8.20356C9.18014 8.15044 9.44783 7.8108 9.31716 7.24004C9.29982 7.1662 9.32353 7.12193 9.38828 7.10724C9.8543 7.00044 10.2139 7.37906 10.4157 7.73112C10.8459 8.48385 10.8332 10.4691 9.68489 10.6963C9.44976 10.743 9.23641 10.6795 9.04484 10.5058Z" fill="black"/>
<path id="Vector_9" d="M12.6958 12.7972C11.961 13.0605 10.9208 12.6938 11.081 11.7845C11.1093 11.624 11.2741 11.2753 11.4972 11.3906C11.5836 11.4354 11.6682 11.4837 11.7511 11.5353C12.2015 11.8144 12.5588 11.6121 12.8993 11.3008C12.9061 11.2947 12.9143 11.2904 12.9232 11.2882C12.932 11.2861 12.9414 11.2861 12.9502 11.2883C13.1056 11.3286 13.211 11.4117 13.2665 11.5375C13.5139 12.0942 13.2416 12.6022 12.6958 12.7972Z" fill="black"/>
</g>
<defs>
<clipPath id="clip0_259_3177">
<rect width="27" height="24" fill="white"/>
</clipPath>
</defs>
</svg>
