<svg width="20" height="21" viewBox="0 0 20 21" fill="none" xmlns="http://www.w3.org/2000/svg">
<path opacity="0.4" d="M4.16699 4.66663C4.16699 3.28591 5.28628 2.16663 6.66699 2.16663H13.3337C14.7144 2.16663 15.8337 3.28591 15.8337 4.66663V16.3333C15.8337 17.714 14.7144 18.8333 13.3337 18.8333H6.66699C5.28628 18.8333 4.16699 17.714 4.16699 16.3333V4.66663Z" fill="#6C0FBC"/>
<path fill-rule="evenodd" clip-rule="evenodd" d="M8.54199 16.3333C8.54199 15.9881 8.82181 15.7083 9.16699 15.7083H10.8337C11.1788 15.7083 11.4587 15.9881 11.4587 16.3333C11.4587 16.6784 11.1788 16.9583 10.8337 16.9583H9.16699C8.82181 16.9583 8.54199 16.6784 8.54199 16.3333Z" fill="#6C0FBC"/>
</svg>
