<svg width="60" height="60" viewBox="0 0 60 60" fill="none" xmlns="http://www.w3.org/2000/svg">
<path d="M48.7875 13.85C43.7625 8.83749 35.8375 8.43749 30.3625 12.925C30.2582 13.0041 30.1309 13.0469 30 13.0469C29.8692 13.0469 29.7419 13.0041 29.6375 12.925C24.1625 8.43749 16.2375 8.83749 11.2125 13.85C5.85005 19.2125 5.85005 27.9375 11.2125 33.3L26.7375 48.825C27.6125 49.7 28.7625 50.175 30 50.175C31.2375 50.175 32.3875 49.7 33.2625 48.825L48.7875 33.3C54.15 27.9375 54.15 19.2125 48.7875 13.85ZM47.4626 31.975L31.9375 47.5C30.9 48.5375 29.1 48.5375 28.0625 47.5L12.5375 31.975C7.91255 27.35 7.91255 19.8125 12.5375 15.175C14.7685 12.9432 17.7944 11.6887 20.95 11.6875C23.6 11.6875 26.25 12.575 28.45 14.375C29.35 15.1125 30.65 15.1125 31.55 14.375C33.8259 12.5033 36.7182 11.5479 39.6611 11.6959C42.604 11.8438 45.3859 13.0844 47.4626 15.175C52.0876 19.8125 52.0876 27.35 47.4626 31.975Z" fill="#6C0FBC"/>
<path d="M30 20.175C25.45 20.175 21.7375 23.8875 21.7375 28.4375C21.7375 32.9875 25.45 36.7 30 36.7C34.55 36.7 38.2626 32.9875 38.2626 28.4375C38.2626 23.8875 34.55 20.175 30 20.175ZM30 34.825C26.475 34.825 23.6125 31.9625 23.6125 28.4375C23.6125 24.9125 26.475 22.05 30 22.05C33.525 22.05 36.3876 24.9125 36.3876 28.4375C36.3876 31.9625 33.525 34.825 30 34.825Z" fill="#6C0FBC"/>
<path d="M33.75 27.5H30.9375V24.375C30.9375 23.8625 30.5125 23.4375 30 23.4375C29.4875 23.4375 29.0625 23.8625 29.0625 24.375V27.5H26.25C25.7375 27.5 25.3125 27.925 25.3125 28.4375C25.3125 28.95 25.7375 29.375 26.25 29.375H29.0625V31.875C29.0625 32.3875 29.4875 32.8125 30 32.8125C30.5125 32.8125 30.9375 32.3875 30.9375 31.875V29.375H33.75C34.2625 29.375 34.6875 28.95 34.6875 28.4375C34.6875 27.925 34.2625 27.5 33.75 27.5Z" fill="#6C0FBC"/>
</svg>
