<svg width="60" height="58" viewBox="0 0 60 58" fill="none" xmlns="http://www.w3.org/2000/svg">
<path fill-rule="evenodd" clip-rule="evenodd" d="M22.0562 25.248V34.848C22.0562 37.068 23.3378 39.2208 25.7762 40.884C28.6753 42.8616 33.3386 44.208 38.6162 44.208C43.8937 44.208 48.557 42.8616 51.4562 40.884C53.8946 39.2208 55.1761 37.068 55.1761 34.848V25.248C55.1761 24.0552 54.2089 23.088 53.0161 23.088C51.8233 23.088 50.8562 24.0552 50.8562 25.248V34.848C50.8562 35.8104 50.0785 36.5952 49.0201 37.3152C46.6777 38.9136 42.881 39.888 38.6162 39.888C34.3514 39.888 30.5546 38.9136 28.2122 37.3152C27.1538 36.5952 26.3762 35.8104 26.3762 34.848V25.248C26.3762 24.0552 25.409 23.088 24.2162 23.088C23.0234 23.088 22.0562 24.0552 22.0562 25.248Z" fill="#6C0FBC"/>
<path fill-rule="evenodd" clip-rule="evenodd" d="M22.0562 34.848V44.448C22.0562 46.668 23.3378 48.8208 25.7762 50.484C28.6753 52.4616 33.3386 53.808 38.6162 53.808C43.8937 53.808 48.557 52.4616 51.4562 50.484C53.8946 48.8208 55.1761 46.668 55.1761 44.448V34.848C55.1761 33.6552 54.2089 32.688 53.0161 32.688C51.8233 32.688 50.8562 33.6552 50.8562 34.848V44.448C50.8562 45.4104 50.0785 46.1952 49.0201 46.9152C46.6777 48.5136 42.881 49.488 38.6162 49.488C34.3514 49.488 30.5546 48.5136 28.2122 46.9152C27.1538 46.1952 26.3762 45.4104 26.3762 44.448V34.848C26.3762 33.6552 25.409 32.688 24.2162 32.688C23.0234 32.688 22.0562 33.6552 22.0562 34.848Z" fill="#6C0FBC"/>
<path fill-rule="evenodd" clip-rule="evenodd" d="M38.6162 15.888C33.341 15.888 28.6778 17.2344 25.7786 19.212C23.3402 20.8752 22.0562 23.028 22.0562 25.248C22.0562 27.468 23.3402 29.6208 25.7786 31.284C28.6778 33.2616 33.341 34.608 38.6162 34.608C43.8914 34.608 48.5546 33.2616 51.4538 31.284C53.8922 29.6208 55.1761 27.468 55.1761 25.248C55.1761 23.028 53.8922 20.8752 51.4538 19.212C48.5546 17.2344 43.8914 15.888 38.6162 15.888ZM38.6162 20.208C42.8786 20.208 46.6753 21.1848 49.0201 22.7808C50.0785 23.5032 50.8562 24.2856 50.8562 25.248C50.8562 26.2104 50.0785 26.9928 49.0201 27.7152C46.6753 29.3112 42.8786 30.288 38.6162 30.288C34.3538 30.288 30.557 29.3112 28.2122 27.7152C27.1538 26.9928 26.3762 26.2104 26.3762 25.248C26.3762 24.2856 27.1538 23.5032 28.2122 22.7808C30.557 21.1848 34.3538 20.208 38.6162 20.208Z" fill="#6C0FBC"/>
<path fill-rule="evenodd" clip-rule="evenodd" d="M2.8562 12V21.6C2.8562 23.4144 3.6938 25.1616 5.321 26.6472C7.2434 28.404 10.3826 29.8296 14.201 30.5112C15.3746 30.72 16.4954 29.9376 16.7066 28.764C16.9154 27.588 16.1306 26.4672 14.957 26.2584C12.5234 25.824 10.4234 25.0512 8.9426 24.0192C7.9226 23.3112 7.1762 22.5408 7.1762 21.6V12C7.1762 10.8072 6.209 9.84003 5.0162 9.84003C3.8234 9.84003 2.8562 10.8072 2.8562 12Z" fill="#6C0FBC"/>
<path fill-rule="evenodd" clip-rule="evenodd" d="M2.8562 21.6V31.2C2.8562 33.228 3.9146 35.1888 5.9522 36.78C8.3594 38.6616 12.2642 40.0704 16.8458 40.4544C18.0338 40.5528 19.0778 39.6696 19.1762 38.4816C19.277 37.2936 18.3938 36.2472 17.2058 36.1488C13.6058 35.8488 10.5026 34.8528 8.609 33.3744C7.7786 32.7264 7.1762 32.028 7.1762 31.2V21.6C7.1762 20.4072 6.209 19.44 5.0162 19.44C3.8234 19.44 2.8562 20.4072 2.8562 21.6ZM17.177 16.9464C13.589 16.6416 10.493 15.6456 8.6066 14.1696C7.7762 13.5216 7.1762 12.8256 7.1762 12C7.1762 11.0376 7.9538 10.2552 9.0122 9.53281C11.357 7.93681 15.1538 6.96001 19.4162 6.96001C23.6786 6.96001 27.4754 7.93681 29.8202 9.53281C30.8786 10.2552 31.6562 11.0376 31.6562 12C31.6562 13.1928 32.6234 14.16 33.8162 14.16C35.009 14.16 35.9762 13.1928 35.9762 12C35.9762 9.78001 34.6922 7.62721 32.2538 5.96401C29.3546 3.98641 24.6914 2.64001 19.4162 2.64001C14.141 2.64001 9.4778 3.98641 6.5786 5.96401C4.1402 7.62721 2.8562 9.78001 2.8562 12C2.8562 14.0256 3.9122 15.984 5.945 17.5728C8.3474 19.452 12.245 20.8632 16.8122 21.2496C18.0002 21.3504 19.0466 20.4696 19.1474 19.2816C19.2482 18.0936 18.365 17.0472 17.177 16.9464Z" fill="#6C0FBC"/>
</svg>
