<svg width="50" height="50" viewBox="0 0 50 50" fill="none" xmlns="http://www.w3.org/2000/svg">
<path d="M23.7182 40.2787H9.31797C8.61623 40.2787 8.04736 40.8476 8.04736 41.5493C8.04736 42.251 8.61623 42.8199 9.31797 42.8199H23.7182C24.4199 42.8199 24.9888 42.251 24.9888 41.5493C24.9888 40.8476 24.4199 40.2787 23.7182 40.2787Z" fill="#6C0FBC"/>
<path d="M15.2475 34.3492H9.31797C8.61623 34.3492 8.04736 34.9181 8.04736 35.6198C8.04736 36.3216 8.61623 36.8904 9.31797 36.8904H15.2475C15.9492 36.8904 16.5181 36.3216 16.5181 35.6198C16.5181 34.9181 15.9492 34.3492 15.2475 34.3492Z" fill="#6C0FBC"/>
<path d="M48.8424 4.21045L45.7591 1.07629C45.4191 0.735145 45.0151 0.464462 44.5703 0.279768C44.1255 0.0950732 43.6487 0 43.167 0C42.6854 0 42.2085 0.0950732 41.7637 0.279768C41.3189 0.464462 40.915 0.735145 40.575 1.07629L37.3392 4.24434L45.8099 12.5795L48.9949 9.39452C49.3374 9.05571 49.6037 8.64775 49.7761 8.19785C49.9484 7.74796 50.0229 7.26648 49.9944 6.78555C49.9522 5.81184 49.5402 4.89091 48.8424 4.21045ZM34.781 6.80249L21.482 20.1015C20.8885 20.697 20.4519 21.4304 20.2114 22.2361L18.8392 26.7933C18.6657 27.3863 18.6577 28.0154 18.8159 28.6126C18.9742 29.2098 19.2927 29.7524 19.7371 30.1816C20.0601 30.5107 20.4448 30.7729 20.8692 30.9531C21.2936 31.1334 21.7494 31.2281 22.2105 31.232C22.5316 31.232 22.851 31.1864 23.1592 31.0965L27.7165 29.7242C28.5222 29.4838 29.2556 29.0472 29.8511 28.4536L43.2009 15.1038L34.781 6.80249Z" fill="#6C0FBC"/>
<path d="M37.1864 49.5965H6.0142C5.2244 49.5965 4.44234 49.4409 3.71266 49.1386C2.98299 48.8364 2.31999 48.3934 1.76152 47.8349C1.20305 47.2765 0.760045 46.6135 0.457804 45.8838C0.155562 45.1541 0 44.3721 0 43.5823V12.4101C0 10.815 0.633637 9.28527 1.76152 8.15739C2.8894 7.02951 4.41913 6.39587 6.0142 6.39587H23.718C24.055 6.39587 24.3781 6.52974 24.6164 6.76803C24.8547 7.00631 24.9886 7.32949 24.9886 7.66648C24.9886 8.00346 24.8547 8.32665 24.6164 8.56493C24.3781 8.80322 24.055 8.93708 23.718 8.93708H6.0142C5.11557 8.93708 4.25375 9.29406 3.61832 9.92949C2.9829 10.5649 2.62592 11.4267 2.62592 12.3254V43.4976C2.62592 44.3962 2.9829 45.258 3.61832 45.8934C4.25375 46.5289 5.11557 46.8858 6.0142 46.8858H37.1864C38.085 46.8858 38.9468 46.5289 39.5823 45.8934C40.2177 45.258 40.5747 44.3962 40.5747 43.4976V25.8785C40.5747 25.5415 40.7085 25.2183 40.9468 24.98C41.1851 24.7418 41.5083 24.6079 41.8453 24.6079C42.1823 24.6079 42.5054 24.7418 42.7437 24.98C42.982 25.2183 43.1159 25.5415 43.1159 25.8785V43.5823C43.116 45.1628 42.494 46.6798 41.3844 47.8053C40.2748 48.9307 38.7667 49.5742 37.1864 49.5965Z" fill="#6C0FBC"/>
</svg>
